<?xml version="1.0" encoding="UTF-8" standalone="no"?>
<!-- Created with Inkscape (http://www.inkscape.org/) -->

<svg
   width="200"
   height="200"
   viewBox="0 0 52.916667 52.916667"
   version="1.1"
   id="svg1"
   inkscape:version="1.3.2 (091e20e, 2023-11-25)"
   sodipodi:docname="only_down.svg"
   xmlns:inkscape="http://www.inkscape.org/namespaces/inkscape"
   xmlns:sodipodi="http://sodipodi.sourceforge.net/DTD/sodipodi-0.dtd"
   xmlns="http://www.w3.org/2000/svg"
   xmlns:svg="http://www.w3.org/2000/svg">
  <sodipodi:namedview
     id="namedview1"
     pagecolor="#ffffff"
     bordercolor="#000000"
     borderopacity="0.25"
     inkscape:showpageshadow="2"
     inkscape:pageopacity="0.0"
     inkscape:pagecheckerboard="0"
     inkscape:deskcolor="#d1d1d1"
     inkscape:document-units="mm"
     inkscape:zoom="0.2102413"
     inkscape:cx="397.16269"
     inkscape:cy="558.88162"
     inkscape:window-width="1584"
     inkscape:window-height="708"
     inkscape:window-x="180"
     inkscape:window-y="39"
     inkscape:window-maximized="0"
     inkscape:current-layer="layer1" />
  <defs
     id="defs1" />
  <g
     inkscape:label="Layer 1"
     inkscape:groupmode="layer"
     id="layer1">
    <path
       style="fill:#000000;stroke-width:0.264583"
       id="path1"
       d="m 4.1168132,45.614746 c 2.2874753,-0.0039 4.5749521,-5.3e-4 6.8624278,2.64e-4 0.979447,0.0011 1.958892,0.0019 2.938339,0.0013 0.950904,5.29e-4 1.901809,-2.65e-4 2.852713,-1.24e-4 1.436994,0.104171 3.676401,-0.521756 -2.511391,0.09024 -0.195381,0.01932 0.371098,0.128474 0.55499,0.197255 1.102556,0.412385 -0.07951,0.0033 1.130691,0.410544 1.144579,0.373231 2.347324,0.466172 3.541232,0.53409 2.237096,0.0704 4.476519,0.0415 6.714281,0.03288 -6.254257,-1.07987 -3.228936,0.390327 -1.636062,0.964039 0.828812,0.273584 1.712024,0.269801 2.575299,0.289962 2.381139,0.02225 4.762487,0.0063 7.143703,0.0011 1.110541,-0.0026 2.221087,-0.0026 3.33163,-0.0033 0.179015,8e-6 0.358029,1.6e-5 0.537044,2.4e-5 0.152421,7.6e-5 0.304842,1.56e-4 0.457263,2.35e-4 -0.238352,9.3e-5 1.514025,-5.29e-4 1.13552,-5.29e-4 -4.713528,-5.29e-4 -4.219209,-5.29e-4 -2.782702,2.65e-4 1.152808,6e-5 2.305619,-5.3e-4 3.458427,-1.25e-4 0.952455,5.29e-4 1.90491,2.65e-4 2.857365,5.29e-4 2.263436,2.65e-4 4.526875,-0.0013 6.790312,1.72e-4 0.714078,-0.0011 1.428157,0.0011 2.142236,2.65e-4 3.257399,0.02806 -3.613836,-0.622535 -5.13815,-0.62212 -0.265407,1.11e-4 -0.530813,2.22e-4 -0.796219,2.65e-4 -0.62974,2.56e-4 -2.518963,2.64e-4 -1.88922,7.93e-4 6.181555,0.0042 0.712814,0.0019 -0.420931,0.0021 -2.632573,-0.0011 -5.265142,-0.0013 -7.897715,-0.0013 -1.772459,-5.29e-4 -3.544919,-0.0019 -5.317378,-0.0019 -3.195704,-3.7e-5 -6.391408,1.8e-5 -9.587112,0.0013 -0.02876,8e-6 -2.503721,7.94e-4 -2.501654,5.29e-4 0.863699,-0.08323 1.758581,0.0842 2.599955,-0.127913 0.425576,-0.107288 -0.867441,-0.134368 -1.301482,-0.19944 -1.693209,-0.253847 -1.237362,-0.186013 -2.957762,-0.405633 -2.038239,-0.26603 -4.088255,-0.417491 -6.141191,-0.503571 -2.4601544,-0.0582 -4.9219599,-0.03993 -7.382519,-0.03096 0.6235748,-0.0083 -2.49437636,0.01786 -1.8708866,0.0046 3.6899258,-0.07848 4.6275769,0.567372 3.3568593,-0.223052 -0.6481265,-0.619607 -0.2059437,-0.296556 0.4345575,-0.358735 2.1545926,-0.07577 4.3112041,-0.06467 6.4668038,-0.06467 -6.0501586,-0.0029 0.544754,0.0063 1.968773,0.009 1.12469,0.0016 2.24938,0.0021 3.374071,0.0032 2.161133,1.64e-4 4.322267,-0.0011 6.483399,1.9e-4 0.83517,-1.66e-4 1.67034,-5.29e-4 2.505509,-3.1e-5 1.561461,1.45e-4 5.071431,-1.51e-4 -1.747539,-1.17e-4 0.894,1.77e-4 1.787999,-5.29e-4 2.681998,-1.11e-4 1.005896,-7.94e-4 2.011794,1.54e-4 3.017689,-2.57e-4 2.0764,0.0016 4.152803,-5.29e-4 6.229202,5.3e-4 0.662117,-0.0011 1.324237,7.93e-4 1.986354,6.6e-5 3.021169,0.0011 -4.740806,-0.0034 -1.869339,2e-6 1.754796,0.0024 3.509595,-0.0021 5.264391,1.04e-4 0.749437,-2.65e-4 1.498877,-1.96e-4 2.248315,-7.94e-4 0.731605,2.64e-4 1.463212,5.29e-4 2.194817,5.29e-4 1.453419,0.03045 4.090632,-0.148979 -2.433553,0.176795 0.628938,0.45576 0.547407,0.468473 -0.08248,0.900221 -1.283047,0.465703 -2.416297,1.183539 -3.73199,1.566523 -1.288995,0.355285 -2.627083,0.463852 -3.957932,0.511948 -4.95705,0.03179 5.062887,0.02596 1.245556,0.0065 -0.905569,-0.0062 -1.811161,-0.0069 -2.716745,-0.0087 -2.382197,-0.0011 -4.764397,-5.29e-4 -7.146596,-5.29e-4 -1.530592,5.29e-4 -3.061183,7.94e-4 -4.591775,0.0013 -2.137984,0.06812 -4.296355,-0.173807 -6.411466,0.178528 -1.896756,0.402672 -3.799933,0.770355 -5.730849,0.958731 -1.29952,0.06799 -2.4913901,0.01553 -3.6820204,0.564493 -0.78179,0.28823 -1.5719732,0.554009 -2.3700147,0.793631 -0.4427977,0.01717 -0.8850442,0.03269 -1.3281874,0.02837 8.0584485,0.633709 3.4578149,-0.347519 2.544868,0.06431 -0.1099545,-0.470393 -0.070418,-0.965682 -0.062177,-1.445536 0.015378,-0.518718 0.014327,-1.037701 0.019878,-1.556596 0.053432,-0.491382 -0.053558,-0.8464 -0.3633161,-1.243275 -0.2840222,-0.169135 -1.0452512,-1.227822 -0.5309592,-0.235021 0.1722245,-5.29e-4 0.3444531,-5.29e-4 0.5166733,-0.0019 0.4924208,-0.0039 5.7398025,-0.01299 2.9400868,-0.01487 -0.9168575,-5.29e-4 -1.8337154,-5.29e-4 -2.7505729,2.65e-4 -0.3933454,2.64e-4 0.7866912,5.29e-4 1.1800367,0.0011 2.167275,0.0031 4.3345499,0.006 6.5018249,0.0087 1.235138,7.94e-4 2.470274,0.0024 3.705412,0.003 2.154633,2.65e-4 4.309266,-2.4e-4 6.463899,1.09e-4 0.848834,1.74e-4 1.697667,8.7e-5 2.5465,-5.29e-4 2.166054,-4.5e-5 -1.893771,2.27e-4 -2.84134,2.43e-4 -0.1882,3e-6 0.3764,-1.08e-4 0.5646,-1.96e-4 0.678512,-2.64e-4 1.357024,-2.64e-4 2.035536,-5.29e-4 1.487955,0.06238 2.997983,-0.132601 4.471619,0.107021 1.002229,0.33527 1.96949,0.75256 3.005548,0.973612 0.831376,0.165121 1.682374,0.175897 2.526808,0.185763 2.078225,0.01431 4.156495,0.0016 6.234723,-0.0046 0.654997,-0.0013 1.31,-0.0021 1.965,-0.0019 2.555843,0.0021 -4.936548,-0.003 -2.327799,1.88e-4 0.554193,-0.0011 1.108387,5.29e-4 1.662583,-5.6e-5 1.936062,0.0011 3.872127,-0.0026 5.808189,-2.65e-4 0.342598,0.0011 0.685194,5.3e-4 1.02779,2.65e-4 0,0 -3.93804,-0.623726 -3.93804,-0.623726 v 0 c -0.341037,-3.7e-5 -0.682072,-5.29e-4 -1.023107,2.64e-4 -2.234652,0.0026 5.518264,-0.0016 2.063237,-2.64e-4 -0.553802,-7.94e-4 -1.107604,7.94e-4 -1.661406,-1.14e-4 -1.849432,0.0021 -3.698864,-0.0026 -5.548294,2.65e-4 -0.654068,5.29e-4 -1.308137,7.93e-4 -1.962203,0.0035 -4.81526,0.01505 3.858737,0.0013 1.631157,0.0066 -0.839328,-0.0024 -1.685253,0.0062 -2.517524,-0.114123 -1.048131,-0.176686 -2.042314,-0.525097 -3.013736,-0.959096 -1.445006,-0.415573 -2.995891,-0.09758 -4.485598,-0.194048 -2.534206,-7.94e-4 -5.068413,-0.0011 -7.60262,-5.29e-4 -0.851479,-7.94e-4 -1.702958,-7.94e-4 -2.554436,-5.29e-4 -0.392564,7.6e-5 -0.785126,-9e-5 -1.17769,2.22e-4 -0.150616,1.19e-4 -0.602466,2.64e-4 -0.451849,2.64e-4 3.127407,-2.64e-4 4.571619,-0.0016 3.029287,-2.64e-4 -1.242191,5.29e-4 -2.484383,0.0013 -3.726574,7.94e-4 -2.171185,-5.3e-4 -4.342369,-0.0032 -6.51355,-0.0066 -3.2431122,-0.0043 -6.4933988,-0.07437 -9.73317711,0.0694 -0.36488989,0.737288 -0.0309485,0.596985 0.50467981,1.086554 0.3295748,0.320339 0.3914285,0.495948 0.3491155,0.952169 -6.482e-4,0.517745 -0.00747,1.035357 -0.016838,1.553012 -0.00693,0.542036 -0.042008,1.09007 0.060007,1.62588 0.4482757,1.833235 6.5385078,-3.143332 5.3892073,0.384765 0.4494895,-0.01487 0.9069636,-0.01902 1.3416277,-0.146873 0.7934304,-0.25654 1.5836698,-0.524756 2.3588688,-0.832609 1.17708,-0.440444 2.420296,-0.301191 3.654711,-0.452057 1.924587,-0.22171 3.819499,-0.610907 5.721317,-0.973976 2.125772,-0.247303 4.272679,-0.07353 6.409551,-0.122573 1.536044,5.29e-4 3.072088,7.93e-4 4.608129,0.0013 -6.863028,-2.65e-4 -2.311562,-5.3e-4 -0.710004,0.0011 0.905491,5.29e-4 1.810985,0.0016 2.716461,0.0071 2.204974,0.01217 4.411041,0.04679 6.615099,-0.02291 1.336127,-0.07233 2.675991,-0.221123 3.959982,-0.616384 1.307743,-0.446379 2.537156,-1.100069 3.767259,-1.720199 0.589822,-0.586452 0.872633,-1.048716 0.07502,-1.621052 -1.865691,-0.181949 -3.622542,-0.471847 -5.461016,-0.425349 -0.729292,10e-6 -1.458587,2.48e-4 -2.187881,5.29e-4 -0.75264,-5.29e-4 -1.505281,-5.29e-4 -2.25792,-7.94e-4 -1.919147,0.0024 5.168222,-0.0021 2.6108,1.03e-4 -2.001507,0.0024 -4.003017,-7.94e-4 -6.004523,3e-6 -0.661837,-7.94e-4 -1.323674,0.0013 -1.98551,6.6e-5 -4.434226,0.0024 4.128788,-0.0013 1.634767,5.29e-4 -1.004813,-5.29e-4 -2.009626,5.29e-4 -3.014442,-2.56e-4 -0.893535,5.29e-4 -1.78707,-2.65e-4 -2.680605,-1.12e-4 -2.039662,8e-6 -4.079325,-2.46e-4 -6.118987,-1.11e-4 -0.835201,5.29e-4 -1.670403,1.48e-4 -2.505604,2.4e-5 -4.606718,0.0028 5.263568,-5.29e-4 1.382798,1.77e-4 -1.129348,7.94e-4 -2.258697,2.65e-4 -3.388045,-5.29e-4 -3.259665,-0.0021 -6.519327,-0.0093 -9.778997,-0.0052 -2.1713206,0.0019 -4.3490345,-0.03925 -6.5157936,0.116065 -0.85687597,0.169907 -1.05308872,0.633589 -0.46281363,1.277239 1.37125623,1.362458 4.43127223,0.325339 6.41310933,0.486068 1.6829764,-0.0036 0.3021928,-2.62e-4 -3.0234782,-0.0021 -0.1841338,-9.8e-5 0.3682675,-7.94e-4 0.5524011,-5.3e-4 0.3954007,5.3e-4 0.968565,0.0024 1.3596204,0.0072 0.2135765,0.0027 0.4271188,0.0076 0.640678,0.01138 2.0636108,0.06972 4.1251596,0.203874 6.1744716,0.463891 3.97286,0.488281 7.927837,1.006983 11.950678,0.783585 1.699214,7.93e-4 9.162795,0.0019 1.769985,0.0013 1.780013,3.4e-5 3.56003,-0.0013 5.340046,-0.0019 2.637872,-6.9e-5 5.275746,-1.99e-4 7.913621,-0.0013 3.634862,7.93e-4 7.269726,0.0019 10.904588,0.0032 3.849176,0.0011 -1.248723,-0.645864 -2.71765,-0.62212 -0.712771,-7.94e-4 -1.425543,0.0013 -2.138317,2.64e-4 -0.457851,2.65e-4 -0.915702,1.17e-4 -1.373555,1.35e-4 -0.145876,5e-6 -0.583502,2.41e-4 -0.437626,2.57e-4 4.315639,5.29e-4 4.442002,5.29e-4 2.88418,-2.2e-4 -0.954373,1.99e-4 -1.908744,-5e-5 -2.863117,5.29e-4 -1.152091,2.65e-4 -2.304182,-2.25e-4 -3.456273,-2.14e-4 -2.399768,0.0013 -4.799539,-7.94e-4 -7.199307,5.29e-4 -1.110631,2.4e-5 -2.221257,0.0019 -3.331882,0.0041 -5.590056,0.01482 4.746982,0.0026 0.714306,0.0038 -0.851786,-0.0098 -1.72307,0.01415 -2.557087,-0.175162 -2.468276,-0.687763 -2.32662,-2.124165 -6.248445,-1.084612 -1.561857,0.0051 -0.324189,5.3e-4 3.096532,0.0021 1.411836,5.29e-4 -3.533197,0.01236 -1.945898,-0.01603 -1.185696,-0.04981 -2.385716,-0.102679 -3.532858,-0.433371 -0.494477,-0.142971 -1.17893,-0.563962 -1.679606,-0.607238 -1.794782,-0.155133 -3.570774,-0.223078 -5.361776,-0.210833 -0.95143,1.4e-4 -1.902861,-5.29e-4 -2.8542913,-1.24e-4 -0.9743442,-5.29e-4 -1.9486866,2.38e-4 -2.9230303,0.0013 -2.2862836,7.94e-4 -4.5725685,0.0042 -6.85885195,2.64e-4 z" />
  </g>
</svg>
