<?xml version="1.0" encoding="UTF-8" standalone="no"?>
<!-- Created with Inkscape (http://www.inkscape.org/) -->

<svg
   width="200"
   height="200"
   viewBox="0 0 52.916667 52.916667"
   version="1.1"
   id="svg1"
   inkscape:version="1.3.2 (091e20e, 2023-11-25)"
   sodipodi:docname="down_left_missing.svg"
   xmlns:inkscape="http://www.inkscape.org/namespaces/inkscape"
   xmlns:sodipodi="http://sodipodi.sourceforge.net/DTD/sodipodi-0.dtd"
   xmlns="http://www.w3.org/2000/svg"
   xmlns:svg="http://www.w3.org/2000/svg">
  <sodipodi:namedview
     id="namedview1"
     pagecolor="#ffffff"
     bordercolor="#000000"
     borderopacity="0.25"
     inkscape:showpageshadow="2"
     inkscape:pageopacity="0.0"
     inkscape:pagecheckerboard="0"
     inkscape:deskcolor="#d1d1d1"
     inkscape:document-units="mm"
     inkscape:zoom="0.2102413"
     inkscape:cx="397.16269"
     inkscape:cy="558.88162"
     inkscape:window-width="1728"
     inkscape:window-height="934"
     inkscape:window-x="0"
     inkscape:window-y="38"
     inkscape:window-maximized="0"
     inkscape:current-layer="layer1" />
  <defs
     id="defs1" />
  <g
     inkscape:label="Layer 1"
     inkscape:groupmode="layer"
     id="layer1">
    <path
       style="fill:#000000;stroke-width:0.264583"
       id="path1"
       d="m 6.4300568,3.6800612 c 2.6272198,-0.00919 5.2544812,-0.00524 7.8817062,6.086e-4 1.141391,3.704e-4 2.282796,0.00843 3.424185,0.00697 0.766581,-8.995e-4 1.533155,-8.995e-4 2.299733,0.00196 0.460971,-5.69e-5 0.921944,-6.35e-4 1.38292,9.26e-4 0.57467,-0.00153 1.149345,-0.00177 1.724018,-0.00201 0.470413,0.0022 0.940807,0.00124 1.411217,7.673e-4 0.723447,-5.292e-4 1.446895,-0.00185 2.170345,-0.00175 0.837409,6.615e-4 1.674818,-5.292e-4 2.512227,-1.775e-4 0.840689,8.731e-4 1.681376,-3.44e-4 2.522066,1.61e-5 0.770157,-0.00146 1.540328,0.00257 2.310482,6.879e-4 0.655061,0.00167 1.310116,-2.291e-4 1.965177,7.938e-4 0.617405,-0.00122 1.234821,0.00156 1.852226,-3.969e-4 0.568846,0.00111 1.137682,7.673e-4 1.706528,4.498e-4 0.575061,0.00103 1.150112,-7.938e-4 1.725176,6.879e-4 0.649803,-0.00119 1.29961,-0.00108 1.949413,-0.00119 2.697192,0.3592269 -4.817631,-3.13038488 -1.962282,-0.9465686 1.686528,0.8750165 2.993633,2.4053916 4.828011,2.2677485 0.361619,-0.042725 0.722431,-0.050352 1.085805,-0.05588 0.296362,-0.00418 0.592751,-0.00579 0.889137,-0.00446 0.460277,0.011192 0.87974,-0.1279483 1.197819,0.2293313 -5.247084,-3.2679319 -3.167147,-1.8695474 -2.081839,-0.9460775 0.187422,0.3579362 0.108637,0.8762838 0.101843,1.296998 -0.01077,0.6505361 -0.01421,1.3011907 -0.02159,1.9517836 0.0031,0.5380231 -0.0045,1.0760345 -0.0011,1.6140449 0.0038,0.9439526 0.0037,1.8879126 0.006,2.8318696 4.2e-5,1.002221 -0.0045,2.004449 -0.0021,3.006666 -0.0032,0.921382 0.0011,1.842759 5.29e-4,2.764142 0.0024,1.080986 0.0031,2.16197 -0.0021,3.242949 2.64e-4,0.734396 -5.3e-4,1.468779 -5.3e-4,2.203171 0.0026,0.706738 -0.0026,1.413496 2.12e-4,2.12023 -0.101502,0.776139 0.08671,1.234519 0.518694,1.854224 0.408562,0.480118 0.576086,1.033155 0.68198,1.641133 0.07372,0.637569 0.06646,1.281599 0.06582,1.922508 -0.0049,0.474334 -0.0077,0.948597 -0.0083,1.422947 0.01289,0.591699 -0.06828,1.186532 0.102523,1.756966 0.397724,0.405918 0.744109,0.761804 0.978493,1.290881 0.182657,0.37225 0.174569,0.78454 0.181972,1.189238 0.01027,0.559205 -0.0031,1.118429 -0.0024,1.677647 -0.0021,0.658301 -2.65e-4,1.31659 -0.0032,1.974892 -1.01e-4,0.512246 7.94e-4,1.02449 -0.0019,1.536742 0.0039,0.462524 0.0021,0.925073 -7.94e-4,1.387597 0.0013,0.501446 0.0039,1.002924 0.0043,1.504386 0,0 3.550848,1.809248 3.550848,1.809248 v 0 c 2.65e-4,-0.500023 0.003,-1.000062 0.0042,-1.500069 -0.0029,-0.46283 -0.0048,-0.92569 -0.0011,-1.38852 -0.0028,-0.512802 -0.0019,-1.025596 -0.0019,-1.538396 -0.0024,-0.65796 -2.35e-4,-1.3159 0.0021,-1.973855 0.0051,-0.560935 0.0032,-1.121902 0.0088,-1.682835 -0.005,-0.44137 0.03666,-0.904488 -0.117957,-1.323091 -0.208841,-0.558027 -0.372324,-1.106977 -0.954275,-1.350288 -0.419349,-0.315193 -0.128974,-1.068422 -0.196115,-1.558703 0.0019,-0.47481 0.0061,-0.94961 0.0056,-1.424431 0.0024,-0.659575 0.0056,-1.319337 -0.0336,-1.978155 -0.09455,-0.644538 -0.174506,-1.292461 -0.61201,-1.804017 -0.430885,-0.633145 -0.749279,-0.802941 -0.62111,-1.636815 0.0029,-0.706661 -0.0024,-1.413348 2.12e-4,-2.120012 -1e-4,-0.734606 -0.0011,-1.469203 -5.29e-4,-2.203812 -0.0052,-1.081683 -0.0044,-2.163372 -0.0021,-3.245061 -5.29e-4,-0.921225 0.0037,-1.842444 5.29e-4,-2.763668 0.0024,-1.002991 -0.0024,-2.005993 -0.0024,-3.008988 0.0021,-0.941981 0.0021,-1.883965 0.0056,-2.825942 0.0034,-0.536968 -0.0041,-1.0739567 0.0024,-1.6109246 -1.3e-4,-0.649846 0.003,-1.2997031 0.01574,-1.9494412 0.0099,-0.5283777 0.0093,-1.0581645 0.04202,-1.5850222 -1.293127,-1.3592865 -3.251417,-2.0961714 -4.71342,-3.0876504 -0.440594,-0.094785 -0.880239,-0.075655 -1.330637,-0.072334 -0.295595,0.00422 -0.591198,0.00825 -0.886759,0.014705 -0.364453,0.0097 -0.726789,0.044684 -1.090988,0.059814 -1.250672,-0.00492 -3.973123,-2.49199335 2.127128,1.5092833 -1.640043,-0.822639 -2.92028,-3.1068463 -4.979752,-2.8389747 -0.650898,-1.021e-4 -1.301797,-1.58e-5 -1.952696,-0.00119 -0.574442,0.00147 -1.148874,-3.598e-4 -1.723316,6.774e-4 -0.568428,-3.069e-4 -1.136851,-6.774e-4 -1.705282,4.524e-4 -0.617778,-0.00194 -1.235567,8.149e-4 -1.853345,-4.048e-4 -0.654339,0.00102 -1.308672,-8.731e-4 -1.96301,7.858e-4 -0.769533,-0.00186 -1.539076,0.00212 -2.308609,6.8e-4 -0.840673,3.678e-4 -1.68135,-8.652e-4 -2.522022,1.59e-5 -0.837573,3.599e-4 -1.675145,-8.519e-4 -2.512717,-1.774e-4 -0.725045,1.128e-4 -1.450089,-0.00122 -2.175133,-0.00174 -0.469714,-4.895e-4 -0.939414,-0.00144 -1.409131,7.567e-4 -0.576515,-2.345e-4 -1.153032,-4.815e-4 -1.729545,-0.00201 -0.460128,0.00157 -0.920253,9.763e-4 -1.380376,9.234e-4 -0.764785,0.00289 -1.529566,0.00283 -2.294354,0.00196 -1.134993,-0.00145 -2.270001,0.00658 -3.404995,0.00697 -2.6266583,0.0059 -5.2533511,0.00978 -7.8800035,6.191e-4 z" />
  </g>
</svg>
