<?xml version="1.0" encoding="UTF-8" standalone="no"?>
<!-- Created with Inkscape (http://www.inkscape.org/) -->

<svg
   width="200"
   height="200"
   viewBox="0 0 52.916665 52.916666"
   version="1.1"
   id="svg1"
   inkscape:version="1.3.2 (091e20e, 2023-11-25)"
   sodipodi:docname="down_right_missing.svg"
   xmlns:inkscape="http://www.inkscape.org/namespaces/inkscape"
   xmlns:sodipodi="http://sodipodi.sourceforge.net/DTD/sodipodi-0.dtd"
   xmlns="http://www.w3.org/2000/svg"
   xmlns:svg="http://www.w3.org/2000/svg">
  <sodipodi:namedview
     id="namedview1"
     pagecolor="#ffffff"
     bordercolor="#000000"
     borderopacity="0.25"
     inkscape:showpageshadow="2"
     inkscape:pageopacity="0.0"
     inkscape:pagecheckerboard="0"
     inkscape:deskcolor="#d1d1d1"
     inkscape:document-units="mm"
     inkscape:zoom="0.2102413"
     inkscape:cx="397.16269"
     inkscape:cy="561.25984"
     inkscape:window-width="1728"
     inkscape:window-height="877"
     inkscape:window-x="0"
     inkscape:window-y="38"
     inkscape:window-maximized="0"
     inkscape:current-layer="layer1" />
  <defs
     id="defs1" />
  <g
     inkscape:label="Layer 1"
     inkscape:groupmode="layer"
     id="layer1">
    <path
       style="fill:#000000;stroke-width:0.264583"
       id="path1"
       d="m 4.2800767,45.149695 c -0.013261,-2.444033 -0.00756,-4.888177 0.00424,-7.332212 5.027e-4,-0.907069 0.00357,-1.814145 0.011406,-2.721182 -0.0035,-0.424505 -0.00132,-0.849029 0.00114,-1.273534 -0.00468,-0.412176 -0.0023,-0.824389 -1.069e-4,-1.236573 3.62e-5,-0.328374 -0.0022,-0.656746 -0.00127,-0.985144 -5.557e-4,-0.583589 -0.00319,-1.167194 -0.00342,-1.750793 -0.00167,-1.141582 -0.0073,-2.283127 -0.00433,-3.424721 -0.00267,-1.168238 0.00334,-2.33648 0.00164,-3.504715 7.144e-4,-0.886408 0.00398,-1.772828 0.00148,-2.659235 0.00214,-0.653033 0.00265,-1.306036 0.00241,-1.959064 0.00183,-0.577269 -0.00101,-1.154516 0.00124,-1.73179 -0.00558,-0.580068 0.00267,-1.160144 -7.938e-4,-1.740207 0.00114,-0.644859 4.18e-5,-1.289699 -0.00288,-1.934555 -0.00507,-0.938785 0.00272,-1.877579 3.969e-4,-2.816359 0.00311,-0.689674 3.969e-4,-1.3793377 0.00212,-2.0690115 0.0028,-0.5154406 -3.969e-4,-1.0308635 0.00153,-1.5463139 -0.00377,-0.5161893 -0.00183,-1.0324041 0.00156,-1.5485903 C 4.269211,4.60346 4.3072669,4.2842971 4.3813856,4.025484 4.6523166,3.8372549 4.9621299,3.7321087 5.2804263,3.6612147 5.7034948,3.7202014 5.9865524,3.2651977 6.24709,2.9742664 6.576923,2.5754001 7.2098349,2.4806412 7.7090039,2.4517506 c 0.5578872,-0.037769 1.1171528,-0.031418 1.6758824,-0.02899 0.5763274,0.0056 1.1526777,0.00471 1.7290257,0.00761 0.440588,0.0027 0.881177,2.234e-4 1.321777,0.00124 0.355536,0.00232 0.711056,-5.133e-4 1.066597,-3.202e-4 1.779266,-0.099078 2.69569,0.7972288 -1.80538,-1.59344955 1.837837,1.14299305 3.61186,2.63225715 5.812179,2.81472285 0.577058,0.04736 1.155743,0.055955 1.734275,0.047573 0.564455,-0.00578 1.128926,-0.00924 1.69341,-0.010065 0.61462,-0.00262 1.229248,2.056e-4 1.843867,-0.00175 0.821748,9.261e-4 1.643492,-0.0019 2.465241,-0.00169 1.080134,-0.00172 2.160268,-0.00214 3.2404,0.00124 0.736129,-2.36e-4 1.47225,3.705e-4 2.208377,4.234e-4 0.746424,-0.00457 1.492853,0.00246 2.239277,2.91e-4 0.545028,0.00124 1.090046,7.409e-4 1.635075,3.704e-4 0.438171,0.00212 0.876323,8.996e-4 1.314492,3.705e-4 0.489217,0.00185 0.978424,-5.557e-4 1.467644,-2.7e-5 0.544737,8.731e-4 1.089488,5.291e-4 1.634228,-0.00127 0.79943,-7.409e-4 1.598864,8.466e-4 2.398292,-8.202e-4 0.658375,0.00132 1.316738,0.00164 1.975109,0.00151 0.516649,0.00235 1.03329,-3.47e-5 1.54994,5.821e-4 0.430834,0.00257 0.861655,-1.225e-4 1.292492,2.556e-4 0.279244,2.645e-4 0.558464,0.00301 0.837697,7.408e-4 0.620472,0.036681 0.864902,0.056895 1.133777,-0.5574152 0.118316,-0.5427393 0.09793,-0.5569204 0.616182,-0.6647438 0.388232,-0.077717 0.785114,-0.048152 1.178391,-0.046321 0.268028,0.00278 0.141375,0.0011 0.379968,0.0048 0,0 -3.228678,-2.34979074 -3.228678,-2.34979074 v 0 c -0.238247,-1.7741e-4 -0.111673,-2.8867e-4 -0.37972,4.9821e-4 -0.418621,0.0038017 -0.839364,0.0017865 -1.241861,0.13432327 -0.52001,0.18020901 -0.754706,0.42822977 -0.807239,0.97273006 -0.119496,0.3292236 -0.578501,0.1117264 -0.880732,0.1592478 -0.278563,-0.00223 -0.557114,3.915e-4 -0.835691,7.276e-4 -0.430602,3.783e-4 -0.86119,-0.0023 -1.291789,2.557e-4 -0.516125,6.086e-4 -1.032242,-0.00179 -1.548368,5.715e-4 -0.656981,-1.389e-4 -1.313955,1.94e-4 -1.970942,0.00151 -0.80019,-0.00166 -1.600385,-1.063e-4 -2.400578,-8.308e-4 -0.545901,-0.00178 -1.091811,-0.00214 -1.637712,-0.00127 -0.489244,5.265e-4 -0.978474,-0.00187 -1.467718,-2.7e-5 -0.437825,-5.212e-4 -0.875636,-0.00175 -1.313466,3.731e-4 -0.544679,-3.492e-4 -1.089345,-8.758e-4 -1.634027,3.81e-4 -0.746164,-0.00216 -1.492334,0.00484 -2.238499,2.831e-4 -0.735735,7.04e-5 -1.471463,6.615e-4 -2.207198,4.26e-4 -1.079021,0.0034 -2.158045,0.00292 -3.237068,0.00118 -0.823376,1.668e-4 -1.646748,-0.00275 -2.470123,-0.00179 -0.615366,-0.00179 -1.230751,9.737e-4 -1.846115,0.00159 -0.565022,0.00271 -1.130033,0.00486 -1.69504,0.00971 C 15.44783,1.3539878 14.880219,1.3407695 14.316944,1.2711414 13.92671,1.2033917 12.83154,0.76301879 13.166305,0.9746898 18.594979,4.4072204 16.596583,2.9955233 15.403365,2.281254 12.415435,0.61421282 12.511184,0.00299469 10.273831,0.08570543 9.9180667,0.08592427 9.5623215,0.08315114 9.2065619,0.08544942 8.7665625,0.0863445 8.3265871,0.08417492 7.8865927,0.08428022 7.3108541,0.08411158 6.7351555,0.07967713 6.1594237,0.0780654 5.5909352,0.07760211 5.0215328,0.08104061 4.4559513,0.14710805 3.8672568,0.25061099 3.2229769,0.41480403 2.8365905,0.90614306 2.579155,1.1835487 2.3708585,1.3638243 1.9872629,1.397111 1.6105481,1.5336533 1.2416344,1.6929908 0.95359753,1.9830874 0.69963823,2.3484346 0.71706631,2.6666708 0.73747264,3.1023181 c 0.003359,0.5167143 0.005336,1.033457 0.001553,1.5501742 0.001934,0.5159724 -0.001262,1.031917 0.001537,1.5478799 0.00173,0.6903948 -9.8954e-4,1.3807795 0.002122,2.0711745 -0.002339,0.9389118 0.005466,1.8778383 3.8894e-4,2.8167553 -0.002935,0.643876 -0.00403,1.287736 -0.002884,1.931616 -0.003489,0.579792 0.004803,1.159598 -7.964e-4,1.739396 0.002249,0.577698 -5.6885e-4,1.15537 0.001249,1.733064 -2.2876e-4,0.653847 2.7782e-4,1.30767 0.00241,1.961521 -0.002519,0.886907 7.7523e-4,1.773827 0.001471,2.660736 -0.001699,1.168793 0.004322,2.337593 0.001646,3.506391 0.002964,1.140123 -0.002635,2.280198 -0.004328,3.420312 -2.2574e-4,0.582438 -0.002861,1.164878 -0.00342,1.747305 9.1017e-4,0.327967 -0.00131,0.655905 -0.001273,0.983846 0.002183,0.412149 0.004587,0.824325 -1.0683e-4,1.236464 0.002434,0.424889 0.004636,0.849796 0.00113,1.274685 0.0078,0.910913 0.0109016,1.821863 0.0114072,2.732807 0.0117491,2.445475 0.0175355,4.891061 0.00424,7.336534 z" />
    <path
       style="fill:#000000;stroke-width:0.264583"
       id="path2"
       d="m -0.50465299,37.909624 c 0.0152384,2.253435 0.006918,4.506968 -0.00803,6.760382 -0.006029,0.404725 0.001408,0.80954 -0.010777,1.214114 0.009581,0.553633 0.006139,1.107382 0.008249,1.66107 0,0 3.54737069,1.807478 3.54737069,1.807478 v 0 c 0.00212,-0.550889 -0.00138,-1.101836 0.00825,-1.652665 -0.01193,-0.408252 -0.00494,-0.816705 -0.010776,-1.2251 -0.014864,-2.256141 -0.023315,-4.5124 -0.00803,-6.76856 z" />
  </g>
</svg>
