<?xml version="1.0" encoding="UTF-8" standalone="no"?>
<!-- Created with Inkscape (http://www.inkscape.org/) -->

<svg
   width="200"
   height="200"
   viewBox="0 0 52.916667 52.916667"
   version="1.1"
   id="svg1"
   inkscape:version="1.3.2 (091e20e, 2023-11-25)"
   sodipodi:docname="down_missing.svg"
   xmlns:inkscape="http://www.inkscape.org/namespaces/inkscape"
   xmlns:sodipodi="http://sodipodi.sourceforge.net/DTD/sodipodi-0.dtd"
   xmlns="http://www.w3.org/2000/svg"
   xmlns:svg="http://www.w3.org/2000/svg">
  <sodipodi:namedview
     id="namedview1"
     pagecolor="#ffffff"
     bordercolor="#000000"
     borderopacity="0.25"
     inkscape:showpageshadow="2"
     inkscape:pageopacity="0.0"
     inkscape:pagecheckerboard="0"
     inkscape:deskcolor="#d1d1d1"
     inkscape:document-units="mm"
     inkscape:zoom="0.2102413"
     inkscape:cx="397.16269"
     inkscape:cy="558.88162"
     inkscape:window-width="1728"
     inkscape:window-height="942"
     inkscape:window-x="0"
     inkscape:window-y="38"
     inkscape:window-maximized="0"
     inkscape:current-layer="layer1" />
  <defs
     id="defs1" />
  <g
     inkscape:label="Layer 1"
     inkscape:groupmode="layer"
     id="layer1">
    <path
       style="fill:#000000;stroke-width:0.264583"
       id="path1"
       d="m 4.2800767,45.149695 c -0.019928,-2.970559 -0.011901,-5.941269 -0.00119,-8.911857 0.0086,-1.11198 0.00789,-2.223989 0.014637,-3.335975 -3.704e-4,-0.539827 0.00272,-1.079701 -2.91e-4,-1.619528 0.469106,-0.743489 0.7931126,-1.517359 1.0052518,-2.374841 0.1729401,-0.949767 0.2336083,-1.913277 0.2551438,-2.876632 0.00691,-0.435969 0.012859,-0.872029 0.0044,-1.307997 -0.00357,-0.345745 -0.00299,-0.691513 -0.00172,-1.037268 -0.00392,-0.508987 -0.00432,-1.018018 -0.00481,-1.527025 0.00342,-0.537971 -7.75e-5,-1.075921 9.525e-4,-1.613894 -0.00204,-0.778158 -0.00368,-1.55633 -0.00161,-2.334492 -8.731e-4,-0.839837 -0.00251,-1.679683 -1.169e-4,-2.51952 0.06914,-0.734697 -0.1489618,-1.541594 0.113893,-2.240842 C 6.149409,12.845208 6.4727764,12.176845 6.6474474,11.422082 6.7716457,10.788358 6.809093,10.14593 6.8176978,9.5020764 6.8249474,9.0552547 6.8171422,8.608484 6.814237,8.1616922 6.8125966,7.6108234 6.8098158,7.0599881 6.811578,6.5091124 6.8107578,6.0174965 6.8101228,5.5258848 6.8126892,5.0342625 6.746047,4.1176228 6.8286568,4.0308199 7.7471131,3.870897 9.0337737,3.6826285 10.339088,3.6797866 11.636874,3.6732516 c 1.12033,0.1321393 1.970919,-0.1006406 2.938292,-0.6414502 0.72819,-0.3215294 1.475922,-0.5102182 2.264068,-0.5779933 0.546106,-0.043777 1.09418,-0.034381 1.641431,-0.030649 0.703667,0.00176 1.407313,0.0046 2.11098,0.00571 0.906256,7.329e-4 1.812522,-8.75e-5 2.71878,-0.00165 1.051595,0.00216 2.103191,-1.948e-4 3.154786,5.08e-4 0.993651,0.00167 1.987296,-0.00102 2.980947,9.843e-4 1.076806,-3.069e-4 2.153615,-0.00215 3.230425,-0.00136 0.949253,0.00156 1.898507,7.117e-4 2.847763,0.00136 0.774896,-0.00129 1.549802,0.00276 2.324698,8.811e-4 0.716507,5.556e-4 1.43301,-9.419e-4 2.149517,0.00106 0.562774,-8.414e-4 1.125564,0.00146 1.688338,-5.107e-4 0.491075,-0.00183 0.982144,0.0035 1.473211,9.578e-4 0.372443,-8.863e-4 0.744889,2.699e-4 1.117327,0.0019 3.201821,0.4744614 -3.734157,-2.81308998 -1.857145,-1.3449511 1.52835,1.0862917 3.132932,2.4327301 5.031783,2.6162483 0.546547,0.026963 1.095301,0.010991 1.642334,-0.00303 2.412942,1.1477701 -4.207253,-3.3288872 -1.917805,-0.8875885 0.244943,0.2071204 0.169137,0.5368634 0.159991,0.8265393 -0.0185,0.6917126 -0.02204,1.3836126 -0.02816,2.0755046 -0.0013,1.1376433 7.94e-4,2.2752865 0.0026,3.4129305 -0.0038,0.9798063 -0.0027,1.9596153 -0.006,2.9394203 0.0056,0.67925 -0.0045,1.358505 -0.0011,2.037744 -0.0019,0.598492 0.0011,1.196967 -9.3e-5,1.795459 0.0019,0.724385 0.0013,1.448773 0.0011,2.17316 0.0041,1.201164 0.0048,2.402334 0.0066,3.603504 0.0036,1.156547 -0.0067,2.313099 -0.0049,3.469636 -5.29e-4,0.809558 -0.003,1.619128 -5.29e-4,2.428685 0.007,1.174435 7.94e-4,2.348891 0.0024,3.523331 0.0021,1.329608 0.0034,2.659232 0.0011,3.988843 -0.005,0.803968 -0.0065,1.60791 -0.0032,2.411889 -0.0016,0.688064 -0.0024,1.376103 -0.0021,2.064162 -0.0035,0.573053 -0.0013,1.146088 0.0016,1.719138 -0.0011,0.681956 -0.0019,1.363888 -0.0016,2.045835 -0.0035,0.455113 -0.0019,0.910186 -0.0011,1.36529 -0.003,0.417661 -7.94e-4,0.835277 -4.5e-5,1.252929 0.0033,0.833168 0.0045,1.666365 0.0021,2.49954 -0.0051,0.560766 -0.0027,1.121516 2.64e-4,1.682287 0,0 3.549349,1.808483 3.549349,1.808483 v 0 c 0.0031,-0.560652 0.0054,-1.121283 2.64e-4,-1.681933 -0.0024,-0.832426 -0.0011,-1.664874 0.0021,-2.497296 7.94e-4,-0.417666 0.0029,-0.8353 -4.5e-5,-1.252974 7.94e-4,-0.455493 0.0024,-0.91095 -0.0011,-1.366451 1.11e-4,-0.682496 -5.3e-4,-1.364978 -0.0016,-2.047478 0.003,-0.572487 0.0051,-1.144956 0.0016,-1.717445 9.5e-5,-0.688808 -5.3e-4,-1.377598 -0.0021,-2.066414 0.0033,-0.805072 0.0019,-1.610109 -0.0032,-2.415175 -0.0024,-1.329209 -0.0011,-2.65843 0.0011,-3.987639 0.0016,-1.173654 -0.0047,-2.347322 0.0024,-3.520969 0.0026,-0.809699 2.06e-4,-1.619411 -5.3e-4,-2.429113 0.0019,-1.158196 -0.0085,-2.316406 -0.0049,-3.474612 0.0019,-1.198936 0.0024,-2.397872 0.0066,-3.596802 -8.8e-5,-0.723993 -7.94e-4,-1.447987 0.0011,-2.171978 -0.0013,-0.598525 0.0019,-1.197033 -9.5e-5,-1.795558 0.0035,-0.679615 -0.0067,-1.359245 -0.0011,-2.03887 -0.0035,-0.981899 -0.0026,-1.963804 -0.0065,-2.945704 0.0019,-1.1347302 0.0024,-2.2694646 0.0093,-3.4041786 0.0024,-0.6873973 0.0083,-1.3748446 0.02861,-2.0619805 0.0141,-0.3536076 0.109291,-0.7714503 -0.03563,-1.0902391 -1.156977,-1.5523062 -3.03975,-2.9681107 -4.992975,-3.0131124 -0.534673,0.01151 -1.072097,0.02474 -1.604219,-0.038709 -1.976078,-0.2764266 4.793281,3.0152497 1.865585,1.2377924 -1.544865,-1.1293152 -3.106521,-2.67309329 -5.075878,-2.47720655 -0.370695,0.0016444 -0.741394,0.0027886 -1.112091,0.0019026 -0.490189,-0.002499 -0.98038,0.0027471 -1.470573,9.5859e-4 -0.563242,-0.0019558 -1.126501,3.2305e-4 -1.68974,-5.0985e-4 -0.715542,0.00201 -1.431073,4.9e-4 -2.146615,0.0010552 -0.774086,-0.0018674 -1.548183,0.0021643 -2.322272,8.816e-4 -0.948005,6.4822e-4 -1.896012,-1.9954e-4 -2.844017,0.0013599 -1.07806,7.8767e-4 -2.156118,-0.0010599 -3.234177,-0.0013615 -0.99273,0.0020174 -1.985458,-6.8289e-4 -2.978188,0.0010261 -1.051085,7.3819e-4 -2.102169,-0.0015457 -3.153254,5.715e-4 -0.908478,-0.0016481 -1.816958,-0.002123 -2.725435,-0.0040681 -0.704545,-0.0014737 -1.409094,-0.0044322 -2.11363,-0.0081126 -0.555414,6.768e-4 -1.111548,8.4904e-4 -1.663917,0.068468 C 12.771275,0.25132413 11.988527,0.50018153 11.241156,0.85395148 10.324144,1.3348003 9.4477146,1.4149467 8.4164381,1.3383615 7.1013594,1.3578166 5.7751707,1.3636629 4.4782456,1.6066108 3.5026412,1.8784582 3.155198,2.2165885 3.2550578,3.2215484 c 0.00249,0.4921062 0.00177,0.9842034 0.00127,1.4763022 0.0023,0.551452 -4.233e-4,1.1028815 0.00274,1.6543229 9.261e-4,0.445467 0.00429,0.8907946 0.00777,1.3362604 -0.00385,0.6192739 -0.022823,1.2387484 -0.1296353,1.8506582 -0.145343,0.7454009 -0.4935476,1.3658789 -0.9498708,1.9665179 -0.3204644,0.75038 -0.1510389,1.570237 -0.187177,2.375959 0.0024,0.839798 7.699e-4,1.679603 -1.166e-4,2.5194 0.00205,0.777609 4.128e-4,1.555226 -0.00163,2.33283 0.00101,0.538276 -0.00251,1.076529 8.546e-4,1.614804 -5.106e-4,0.507814 -0.00108,1.015646 -0.00438,1.523445 0.00305,0.347018 0.00572,0.694043 0.00573,1.041077 -0.00287,0.434267 0.016367,0.868517 0.00709,1.302876 -0.01304,0.937218 -0.057431,1.875454 -0.2114822,2.801738 -0.2090333,0.898734 -0.5728106,1.673513 -1.05554847,2.454471 -0.003035,0.539728 8.413e-5,1.0795 -2.9634e-4,1.619226 0.006738,1.11696 0.006053,2.233938 0.0146367,3.350889 0.0106765,2.970189 0.0187905,5.940497 -0.001183,8.910654 z" />
    <path
       style="fill:#000000;stroke-width:0.264583"
       id="path2"
       d="m 3.0216022,47.666645 c -0.013261,-2.444033 -0.00756,-4.888177 0.00424,-7.332213 0.022069,-0.746826 -0.019354,-1.497063 0.014494,-2.242865 -4.3338815,-2.076452 -3.55289106,-1.728512 -3.55488342,1.025369 0.004539,1.124088 -0.00105,2.248183 6.9321e-4,3.372268 -0.002445,0.844823 -2.4538e-4,1.689632 -0.004219,2.534449 -0.00512,0.4029 -7.62e-4,0.805773 -0.001236,1.208686 -0.003337,0.407516 7.1702e-4,0.815001 2.2873e-4,1.222523 -0.0499273,0.744929 0.7629469,0.926462 1.16724775,1.432996 0.11956495,0.210968 0.0730832,0.110583 0.1471858,0.29745 0,0 3.60043613,1.727848 3.60043613,1.727848 v 0 C 4.3594227,50.648306 4.3888115,50.78845 4.2980761,50.494837 3.841695,49.600281 3.2507032,49.721399 3.0367129,49.476818 c -0.046211,-0.05282 -4.498e-4,-0.140356 -6.879e-4,-0.210537 -4.763e-4,-0.407445 0.00356,-0.81485 2.289e-4,-1.22229 -4.763e-4,-0.403334 0.00388,-0.806625 -0.00124,-1.209945 -0.00396,-0.846251 -0.00177,-1.692495 -0.00422,-2.538748 0.00175,-1.12385 -0.00385,-2.24771 6.879e-4,-3.371559 -0.00214,-2.956669 0.3979892,-2.579315 -3.55488351,-4.647978 0.0325807,0.75111 -0.006568,1.505741 0.0144925,2.257634 0.0117491,2.445475 0.0175355,4.891061 0.00424,7.336533 z" />
  </g>
</svg>
