<?xml version="1.0" encoding="UTF-8" standalone="no"?>
<!-- Created with Inkscape (http://www.inkscape.org/) -->

<svg
   width="200"
   height="200"
   viewBox="0 0 52.916667 52.916667"
   version="1.1"
   id="svg1"
   inkscape:version="1.3.2 (091e20e, 2023-11-25)"
   sodipodi:docname="full.svg"
   xmlns:inkscape="http://www.inkscape.org/namespaces/inkscape"
   xmlns:sodipodi="http://sodipodi.sourceforge.net/DTD/sodipodi-0.dtd"
   xmlns="http://www.w3.org/2000/svg"
   xmlns:svg="http://www.w3.org/2000/svg">
  <sodipodi:namedview
     id="namedview1"
     pagecolor="#ffffff"
     bordercolor="#000000"
     borderopacity="0.25"
     inkscape:showpageshadow="2"
     inkscape:pageopacity="0.0"
     inkscape:pagecheckerboard="0"
     inkscape:deskcolor="#d1d1d1"
     inkscape:document-units="mm"
     inkscape:zoom="0.2102413"
     inkscape:cx="-240.20019"
     inkscape:cy="273.49526"
     inkscape:window-width="1728"
     inkscape:window-height="938"
     inkscape:window-x="0"
     inkscape:window-y="38"
     inkscape:window-maximized="0"
     inkscape:current-layer="layer1" />
  <defs
     id="defs1" />
  <g
     inkscape:label="Layer 1"
     inkscape:groupmode="layer"
     id="layer1">
    <path
       style="fill:#ffffff;stroke-width:0.264583"
       d="M 274.34746,-25.169491 239.11017,-125.84745"
       id="path3" />
    <path
       style="fill:#ffffff;stroke-width:0.264583"
       d="M 285.67372,22.652542 -320.911,191.28813"
       id="path4" />
    <path
       style="fill:#ffffff;stroke-width:0.264583"
       d="m 298.25846,-76.766948 -716.07202,27.686441"
       id="path5" />
    <path
       style="fill:#000000;stroke-width:0.264583"
       id="path6"
       d="m 3.2707707,3.9308119 c 0.018399,2.557332 0.00271,5.1147151 -0.00196,7.6720581 -0.00682,1.749795 -4.762e-4,3.499614 0.0018,5.249415 0.00929,1.827808 -0.00586,3.655594 -0.00722,5.483385 -0.00432,0.851049 -0.00627,1.702069 -0.00312,2.553122 8.996e-4,1.001758 0.00151,2.003513 2.911e-4,3.005271 -0.00196,0.870508 -1.889e-4,1.741019 -8.467e-4,2.611527 -0.00316,0.667155 -2.91e-4,1.334294 -0.00317,2.001451 -0.00453,0.429125 -5.028e-4,0.858248 0.00222,1.287378 0.00228,1.035127 0.00502,2.070251 0.00188,3.10538 0.00573,0.787358 -0.00635,1.574716 -0.00294,2.36206 0.0023,0.464481 -0.00533,0.928949 -0.00151,1.393412 -8.995e-4,0.55657 0.00212,1.113118 0.00103,1.66969 -0.1126789,0.820148 0.1617615,1.435164 0.5311312,2.144379 0.2967596,0.511731 0.5387012,1.047031 0.7862387,1.582312 0.2656578,0.383977 0.6210181,0.686051 0.9830031,0.974352 1.5150708,1.378222 3.2733191,2.514441 5.2533099,3.141379 0.682149,0.119862 1.373214,0.130511 2.063029,0.113557 0.653422,-0.01656 1.307035,-0.02191 1.960635,-0.02551 0.801987,-0.005 1.603987,-0.0056 2.405984,-0.0035 0.7062,-5.3e-4 1.412396,-1.43e-4 2.118594,-7.7e-5 0.778169,2.64e-4 1.556338,-0.0011 2.334507,-7.94e-4 1.007066,0.06295 1.802049,0.05273 2.683994,-0.437213 0.803681,-0.36698 1.616923,-0.649566 2.491195,-0.764199 0.487866,-0.0691 0.978945,-0.06605 1.469999,-0.0645 0.348573,-1.59e-4 0.696981,0.01222 1.045514,0.0089 0.398153,-7.94e-4 0.796288,0.0033 1.19443,7.94e-4 0.55871,5.29e-4 1.117409,-0.0016 1.676119,-7.94e-4 0.516245,0.0016 1.032481,-5.29e-4 1.548731,7.94e-4 0.568359,-0.0038 1.136724,0.0016 1.705081,-7.94e-4 0.523875,0.0011 1.047737,2.65e-4 1.571609,-9.2e-5 0.439613,0.0021 0.879213,7.93e-4 1.318823,2.64e-4 0.489641,0.0019 0.979268,-5.29e-4 1.468909,-2.1e-5 0.665197,1.67e-4 1.330399,-0.0016 1.995598,-0.0016 0.864159,-0.0016 1.728322,-2.64e-4 2.592483,2.4e-5 0.685337,-1.35e-4 1.370669,-5.29e-4 2.056006,0.0021 -5.525873,-3.490542 -3.210523,-1.642764 -1.984044,-0.755407 1.762577,1.385732 3.145472,2.098104 5.059658,2.038229 0.750033,0.08048 0.969693,-0.273439 1.139852,-0.972728 0.43144,-0.708165 0.852413,-1.377545 1.137473,-2.163873 0.214386,-0.818076 0.235936,-1.663777 0.255259,-2.503797 -0.0045,-1.539275 -0.006,-3.078557 -0.0096,-4.617834 0.0011,-1.05977 0.0045,-2.119522 0.0011,-3.179289 -1.22e-4,-1.095822 -0.0033,-2.191634 2.46e-4,-3.287453 5.29e-4,-0.921314 -0.0011,-1.84263 0.0019,-2.763941 0.0019,-0.800798 -0.0024,-1.601591 -5.3e-4,-2.402401 -0.0016,-0.925298 5.3e-4,-1.850585 -0.0021,-2.775884 0.127476,-1.108549 -0.135493,-2.057853 -0.537358,-3.076623 -0.355391,-0.791539 -0.557165,-1.640738 -0.667907,-2.498335 -0.05915,-0.650609 -0.06003,-1.30441 -0.05759,-1.957091 -0.0019,-0.605345 0.0029,-1.210693 0.0095,-1.815998 -7.94e-4,-0.624191 -0.003,-1.248378 -0.0016,-1.872571 -0.336814,-0.805155 -0.754131,-1.553131 -1.007398,-2.401888 -0.189558,-0.565595 -0.231629,-1.155119 -0.251841,-1.746391 -0.01193,-0.4781213 -0.007,-0.9564191 -0.0011,-1.4345853 0.0021,-0.4224922 0.0019,-0.8450225 0.0045,-1.2675327 0.0016,-0.3675676 -0.0013,-0.7351278 -2.65e-4,-1.1027172 0.07906,-0.716793 -0.15244,-1.2199247 -0.68258,-1.6846875 -1.565786,-1.3774007 -3.26082,-2.2230739 -5.209053,-2.1795007 -0.75687,0.016423 -1.513866,0.023506 -2.270887,0.027744 -1.011404,0.0049 -2.022837,0.00627 -3.034252,0.00449 -0.911098,9.366e-4 -1.822194,-5.398e-4 -2.733294,0.00123 -0.98107,0.00283 -1.962145,-0.00266 -2.943212,-0.00116 -0.618657,-0.00161 -1.2373,-0.00172 -1.855954,-0.00149 -0.370232,5.53e-4 -0.740452,-0.00369 -1.110676,-0.00116 C 28.942294,2.5652715 28.23411,1.9505067 27.452645,1.6362457 27.933094,2.2449226 24.837442,0.72704538 25.567899,1.11413 28.037112,2.4226184 29.48814,3.4197948 28.066984,2.4598355 26.489048,1.8851119 24.972552,-0.07519321 23.122885,0.02204074 22.677779,0.06288741 22.231788,0.06969536 21.78513,0.07817633 c -0.59167,0.0099525 -1.183451,0.0071751 -1.775176,0.0092422 -0.703851,-4.511e-5 -1.407694,0.0011568 -2.111544,-9.5171e-4 -0.673458,8.0566e-4 -1.346914,5.6436e-4 -2.020373,6.0828e-4 -0.737246,-0.11705537 -1.150091,0.2428016 -1.7068,0.67761811 C 13.78365,1.18982 13.281717,1.2520586 12.737316,1.3307917 c -0.510743,0.019868 -1.02183,0.029488 -1.532892,0.019497 -0.426185,5.583e-4 -0.85236,-0.00332 -1.2785243,-0.00715 -0.5368986,0.0017 -1.0738056,0.00183 -1.6107089,0.0021 C 7.7164651,1.3586536 7.1469712,1.2261988 6.6425211,1.5771784 6.1972531,2.0308872 5.5826696,2.281761 5.0049162,2.5298931 4.7165013,2.68725 4.41703,2.6130388 4.0986405,2.6131147 3.8336606,2.613919 3.5692019,2.5992704 3.3043423,2.603836 c 0,0 3.228485,2.348659 3.228485,2.348659 v 0 c 0.2658919,0.00784 0.5318479,0.00743 0.7978274,0.00196 C 7.6838976,4.944795 8.0181105,4.918637 8.3301405,4.7377893 8.9099881,4.4666139 9.4939428,4.1804149 9.9807034,3.757756 10.479178,3.6027774 11.024116,3.729142 11.540421,3.68856 c 0.538739,3.704e-4 1.0775,4.498e-4 1.616221,0.00454 0.425978,7.938e-4 0.851968,0.00156 1.277921,0.00678 0.524426,-0.0044 1.051246,-0.00893 1.57164,-0.079919 0.580143,-0.1194054 1.112668,-0.2905676 1.535843,-0.7278939 0.513952,-0.3850662 0.912745,-0.5368675 1.56058,-0.4621648 0.674142,8.34e-5 1.348281,-6.42e-5 2.022422,9.843e-4 0.703343,-0.00178 1.406677,-2.82e-5 2.110021,-8.149e-4 0.594297,7.54e-4 1.188727,-0.002 1.782897,-0.014321 0.444843,-0.011816 0.888775,-0.039843 1.333583,-0.047945 1.22249,0.069195 4.071004,2.7175736 -1.993707,-1.3510372 2.067328,1.249095 3.8426,2.7060754 6.215093,3.0844804 0.788093,0.35556 1.514559,0.9263848 2.416857,0.8472633 0.369155,0.00246 0.738307,-0.00167 1.107472,-0.00116 0.617289,2.291e-4 1.234567,1.251e-4 1.851858,-0.00148 0.980078,0.00151 1.960161,-0.00391 2.940238,-9.789e-4 0.912336,0.00188 1.824665,7.144e-4 2.737001,0.00116 1.011145,-0.00287 2.02229,-0.00335 3.033432,-0.00789 0.758073,-0.0052 1.516113,-0.0146 2.274168,-0.018822 1.761402,0.065688 2.622441,1.0654299 -1.884051,-1.728705 -0.05156,-0.031967 0.106765,0.057633 0.16015,0.08645 0.552643,0.3521797 0.942644,0.6398543 0.833612,1.3475274 0.0011,0.3672287 -0.0016,0.7344222 -7.94e-4,1.1016329 0.0016,0.4217945 0.0013,0.8435826 -0.003,1.26536 -0.0016,0.4832088 -0.0067,0.966485 -0.0037,1.4496486 0.01751,0.6186982 0.02286,1.2443013 0.214826,1.8390348 0.224866,0.80694 0.434303,1.697983 1.053467,2.299846 0.0013,0.622624 -5.29e-4,1.245255 -0.004,1.867867 0.0016,0.606456 0.0013,1.212931 -0.0044,1.819366 -7.94e-4,0.665498 -0.0098,1.331574 0.04182,1.995756 0.06865,0.888057 0.277006,1.783204 0.626081,2.601943 0.405114,0.990033 0.752409,1.844612 0.602446,2.939302 -0.0027,0.924551 -5.29e-4,1.849092 -0.0021,2.773642 0.0021,0.800655 -0.0024,1.601301 -5.29e-4,2.401948 0.0029,0.921946 0.0013,1.843903 0.0019,2.765854 0.0035,1.09602 1.98e-4,2.192038 5.29e-4,3.288064 -0.0024,1.061675 0.0035,2.123303 0.0087,3.184964 0.0021,1.534443 0.01323,3.068945 -0.0021,4.603348 -0.0089,0.800045 -0.02133,1.604896 -0.195257,2.389894 -0.27925,0.809644 -0.733108,1.476433 -1.162251,2.21053 -0.10195,0.607007 -0.28969,0.521208 -0.858431,0.512996 -2.186074,-0.02289 -0.830569,-0.329214 1.888001,1.766493 -1.634784,-1.090687 -2.920135,-2.444798 -4.961583,-3.053033 -0.683395,0.0026 -1.366785,0.0021 -2.05018,0.0021 -0.864139,5.29e-4 -1.728279,0.0016 -2.592419,2.4e-5 -0.66661,-1.1e-5 -1.333219,-0.0016 -1.999829,-0.0016 -0.489659,5.3e-4 -0.979305,-0.0019 -1.468964,-2.1e-5 -0.439282,-5.29e-4 -0.878552,-0.0019 -1.317837,2.65e-4 -0.523957,-2.65e-4 -1.047903,-0.0011 -1.571863,-9.5e-5 -0.569029,-0.0024 -1.138065,0.003 -1.707097,-7.94e-4 -0.515487,0.0013 -1.030962,-7.94e-4 -1.546447,7.94e-4 -0.559377,7.93e-4 -1.118746,-0.0011 -1.678122,-7.94e-4 -0.398122,-0.0026 -0.796253,5.29e-4 -1.194377,-0.0028 -0.348266,-0.0063 -0.69659,-0.006 -1.04491,-0.0053 -0.502885,0.0036 -1.003865,0.03279 -1.500826,0.116142 -0.896604,0.157204 -1.73829,0.490519 -2.562684,0.873275 -0.819841,0.395595 -1.682797,0.280829 -2.57623,0.279445 -0.778924,2.17e-4 -1.557848,-0.0011 -2.336771,-7.93e-4 -0.706482,-5.9e-5 -1.412961,1.69e-4 -2.119445,-2.65e-4 -0.803249,0.0026 -1.606498,0.0016 -2.409744,0.005 -0.653626,0.0078 -1.307257,0.01498 -1.9608169,0.02721 -0.6646502,1.72e-4 -1.3356759,-0.02471 -1.9767621,-0.219491 -2.156443,-0.797671 4.595435,3.28762 1.6092046,0.764551 C 8.8971627,48.245804 8.5431761,47.968523 8.2279497,47.646409 7.8326365,47.263737 7.8219815,46.54212 7.4191298,46.103475 7.0545197,45.413429 6.6819777,44.947942 6.8104567,44.135396 c -0.00106,-0.556215 0.00193,-1.112411 0.00103,-1.668626 0.00385,-0.464977 -0.00387,-0.929961 -0.00151,-1.394955 0.00343,-0.788342 -0.00868,-1.5767 -0.00294,-2.365058 -0.00313,-1.034494 -4.233e-4,-2.06898 0.00188,-3.103472 0.00275,-0.428371 0.00676,-0.856734 0.00222,-1.2851 -0.00286,-0.668234 -1.69e-5,-1.33645 -0.00317,-2.004679 -6.615e-4,-0.870802 0.00108,-1.741604 -8.467e-4,-2.612401 -0.00119,-1.001656 -5.821e-4,-2.003311 2.911e-4,-3.004968 0.00317,-0.852113 0.00116,-1.704195 -0.00312,-2.556303 -0.00135,-1.830242 -0.016486,-3.660479 -0.00722,-5.490737 0.0023,-1.749186 0.00863,-3.49839 0.0018,-5.24757 -0.00467,-2.55801 -0.020368,-5.1160608 -0.00196,-7.6740596 z" />
  </g>
</svg>
