<?xml version="1.0" encoding="UTF-8" standalone="no"?>
<!-- Created with Inkscape (http://www.inkscape.org/) -->

<svg
   width="200"
   height="200"
   viewBox="0 0 52.916666 52.916666"
   version="1.1"
   id="svg1"
   inkscape:version="1.3.2 (091e20e, 2023-11-25)"
   sodipodi:docname="left_right_missing.svg"
   xmlns:inkscape="http://www.inkscape.org/namespaces/inkscape"
   xmlns:sodipodi="http://sodipodi.sourceforge.net/DTD/sodipodi-0.dtd"
   xmlns="http://www.w3.org/2000/svg"
   xmlns:svg="http://www.w3.org/2000/svg">
  <sodipodi:namedview
     id="namedview1"
     pagecolor="#ffffff"
     bordercolor="#000000"
     borderopacity="0.25"
     inkscape:showpageshadow="2"
     inkscape:pageopacity="0.0"
     inkscape:pagecheckerboard="0"
     inkscape:deskcolor="#d1d1d1"
     inkscape:document-units="mm"
     inkscape:zoom="0.2102413"
     inkscape:cx="397.16269"
     inkscape:cy="558.88162"
     inkscape:window-width="1728"
     inkscape:window-height="942"
     inkscape:window-x="0"
     inkscape:window-y="38"
     inkscape:window-maximized="0"
     inkscape:current-layer="layer1" />
  <defs
     id="defs1" />
  <g
     inkscape:label="Layer 1"
     inkscape:groupmode="layer"
     id="layer1">
    <path
       style="fill:#000000;stroke-width:0.264583"
       id="path1"
       d="m 4.2666631,2.8265024 c 2.3758583,-0.00265 4.7517192,-7.673e-4 7.1275779,7.673e-4 0.6768,-5.027e-4 1.353601,0.00269 2.0304,0.00183 0.591578,-1.479e-4 1.183154,-5.028e-4 1.774732,-1.088e-4 0.735413,-2.646e-4 1.470827,-6.085e-4 2.20624,-2.91e-4 0.603607,3.7e-5 1.207213,-9.13e-5 1.81082,5.027e-4 C 19.88422,2.7041385 20.332635,2.1000013 20.99734,1.8322919 21.730529,1.5787454 22.534834,1.5834021 23.304164,1.56561 27.34016,1.551477 18.263195,1.551943 21.780222,1.5655531 c 0.631948,0.00326 1.263901,0.00392 1.895855,0.00467 1.863089,0.0031 3.726181,-0.00187 5.589271,3.334e-4 1.468755,-8.123e-4 4.758251,3.413e-4 -1.61475,-0.00119 1.131565,3.572e-4 2.263132,4.366e-4 3.394697,5.95e-5 1.40884,-0.1497202 2.705563,0.1823913 4.056123,0.5217893 1.611956,0.3681652 3.254825,0.5683465 4.902378,0.6830867 2.133801,0.1169668 4.274693,0.06165 6.409483,0.060317 0.603893,-0.00305 1.207791,-0.00457 1.811692,-0.00529 1.92105,-0.074887 4.837713,0.4857737 -3.4007,-0.6230979 -1.603499,8.096e-4 -3.206999,9.15e-5 -4.810498,5.08e-4 -0.76396,-3.572e-4 -1.527921,-3.4e-6 -2.291884,-3.89e-4 -0.197067,-9.95e-5 -0.788268,-3.757e-4 -0.591201,-3.995e-4 2.502077,-3.201e-4 4.591568,5.265e-4 2.782086,-1.499e-4 -1.120662,-3.493e-4 -2.24132,3.201e-4 -3.361981,2.181e-4 -1.801683,6.033e-4 -3.603366,0.00168 -5.405049,0.00117 -2.835492,0.00161 -5.670982,-0.00134 -8.506472,-0.0012 -1.08735,-0.1348007 -1.969316,0.4703531 -2.960425,0.8276668 -0.976422,0.3646186 -2.035034,0.3905522 -3.065386,0.4222697 -0.594091,0.015729 -1.188444,0.01714 -1.782702,0.017896 -0.215275,2.646e-4 -0.8611,-4.84e-5 -0.645825,-1.267e-4 3.34792,-0.00122 4.474661,9.789e-4 2.6717,-0.00188 -1.443602,-0.00394 -2.88721,-0.00531 -4.330816,-0.00579 C 10.704936,3.4663156 8.8840552,3.4651515 7.063174,3.4650985 5.5167744,3.4649943 3.9703745,3.465002 2.4239748,3.464781 2.3845708,3.4647755 0.84226243,3.439654 0.83952246,3.463271 0.81481806,3.6761698 0.94146173,3.8796283 0.99243138,4.0878073 3.8866516,4.0825973 6.7808808,4.0818573 9.6751051,4.0821273 13.364,4.3321893 17.030744,4.8194237 20.717858,5.0993772 c 2.301194,0.172588 4.60861,0.2272448 6.915423,0.2480665 2.717123,-0.1275403 5.607513,0.6618541 8.150477,-0.4296413 1.009449,-0.4195778 2.039419,-0.6789145 3.125824,-0.7711204 1.050229,0.042982 1.834303,-0.1384824 2.685336,-0.7546782 0.654558,-0.3274452 1.321723,-0.488206 2.042318,-0.5453134 0.516539,-0.53469 1.152102,-0.8446812 1.824996,-1.1423667 0.569679,-0.1828013 1.221586,-0.1388917 1.819664,-0.1440325 2.94128,0.00555 -5.649362,-0.015137 -1.911972,0.00686 0.588349,0.00356 1.176716,0.00286 1.765072,0.00302 2.003798,2.698e-4 4.007594,-0.00131 6.011389,5.106e-4 0.0057,1.624e-4 0.01135,3.254e-4 0.01704,4.868e-4 -0.08346,-0.2082465 -0.06564,-0.4974604 -0.250388,-0.6247396 -0.316204,-0.2178396 -1.955033,-0.00933 -2.319039,0.002003 -1.637456,0.050982 -3.274292,0.1202144 -4.911441,0.1803216 -2.223162,0.4990362 -4.484161,0.7764718 -6.753122,0.953227 -1.603365,0.1217809 -3.211939,0.1295038 -4.818938,0.1336426 -1.315771,0.085623 -2.54988,0.669861 -3.853508,0.9486877 -1.144842,0.1951407 -2.299761,0.2843402 -3.45933,0.3026984 -0.190785,0.00172 -0.381572,0.00342 -0.572358,0.00513 0.331146,0.00214 -1.868683,0.00196 -1.401512,0.00183 6.196224,-0.00183 3.11314,-3.175e-4 1.729705,-0.00353 -1.16472,-0.0036 -2.329447,-0.00509 -3.494173,-0.00545 -2.288229,-0.00169 -4.57646,-0.00111 -6.864689,-0.00106 -0.630011,-9.261e-4 -1.260024,-2.493e-4 -1.890035,-2.125e-4 -0.860381,-2.57e-5 -1.720762,6.35e-4 -2.581143,2.318e-4 6.819764,-5.821e-4 2.834164,6.879e-4 1.258742,-1.585e-4 -0.6625,1.976e-4 -1.325002,-6.35e-4 -1.987503,-1.088e-4 C 8.5037172,3.3139183 6.1101572,3.2478838 3.7248504,3.8721949 2.2337395,4.2392752 0.72667478,4.5027359 -0.79945306,4.6635044 -2.6054129,5.1795869 -0.590728,5.3550308 -0.0267154,5.3564963 c 3.1344715,0.00393 6.2689124,-0.00792 9.4033748,-0.011314 2.4737606,-0.00217 4.9475226,-0.00228 7.4212846,-0.00241 1.060996,-1.916e-4 5.911976,-9.79e-4 0.255502,-5.027e-4 -0.03642,3.2e-6 2.516261,7.937e-4 2.523304,6.085e-4 1.70287,-0.046912 3.40504,-0.116532 5.10756,-0.174798 2.047938,-0.3809503 4.095445,-0.7637547 6.170438,-0.9609217 1.51816,-0.2263391 3.113468,0.1112761 4.58761,-0.3250067 1.24669,-0.4750372 2.528194,-0.7719425 3.847923,-0.9430089 0.9584,-0.1158944 1.926198,-0.1178065 2.890223,-0.1204156 1.837587,0.0013 -0.366723,-4.233e-4 -2.888609,0.00114 -0.196829,1.21e-4 0.393657,5.557e-4 0.590486,9.79e-4 0.589545,0.0013 1.179092,0.00276 1.768636,0.00409 0.960597,0.00249 1.921195,0.00291 2.881794,0.00341 0.30402,1.818e-4 0.608039,5.027e-4 0.912061,8.467e-4 0,0 3.94167,-0.6242851 3.94167,-0.6242851 v 0 c -0.306975,3.254e-4 -0.613949,6.032e-4 -0.920927,6.456e-4 -0.962327,-7e-6 -1.924656,-5.107e-4 -2.886982,-0.00191 -2.443801,-0.00405 -4.887609,-0.015495 -7.331417,-0.0052 -0.965803,0.010263 -1.934704,0.032057 -2.891843,0.1740742 -1.317265,0.2022164 -2.583219,0.5703839 -3.850198,0.9784664 -1.505899,0.2566675 -3.057334,0.065393 -4.573748,0.2759451 -2.067373,0.2288995 -4.106961,0.6271823 -6.157156,0.9717148 0.901443,0.042082 1.805214,0.049024 2.704329,0.1262473 0.840476,0.072187 -1.687141,5.556e-4 -2.530712,5.556e-4 -2.68351,2.43e-5 -5.367021,1.03e-5 -8.050531,-4.498e-4 -2.475372,1.439e-4 -4.950743,2.91e-4 -7.4261137,0.00201 C 3.795831,4.728437 -3.5337787,4.737188 3.903623,4.734187 3.3280289,4.7351388 2.5110588,4.4472174 2.5970425,5.295742 2.6152723,5.4756419 3.4386353,4.6899493 3.1367915,5.2415431 4.6608894,5.0569711 6.1655023,4.7641718 7.6560922,4.3953786 8.173254,4.2691036 8.6339676,4.1324069 9.1637198,4.0865747 c 0.1851356,-0.016018 0.7433082,2.91e-4 0.5574811,2.91e-4 -6.2631836,6.35e-4 -4.0423296,-4.233e-4 -2.6634014,3.44e-4 0.662958,5.292e-4 1.325917,-3.175e-4 1.988875,-1.085e-4 2.2034345,-0.00116 4.4068695,0.00132 6.6103035,-1.577e-4 0.861342,-3.968e-4 1.722682,2.62e-4 2.584024,2.204e-4 0.628934,2.41e-5 1.257869,6.879e-4 1.886802,-3.175e-4 -7.040892,1.643e-4 -2.629098,-1.757e-4 -0.994785,-2.265e-4 1.165809,8.467e-4 2.331619,0.00161 3.497426,0.00429 2.698697,0.00513 5.397666,0.024376 8.096152,-0.011462 1.163298,-0.038285 2.323062,-0.1537541 3.466086,-0.380379 1.280404,-0.2995575 2.508758,-0.8952145 3.839221,-0.8640548 1.605015,-0.00931 3.211401,-0.028893 4.811657,-0.1662443 2.270733,-0.199457 4.52628,-0.5127412 6.758675,-0.9794739 -8.065807,-0.3331133 -0.776737,-0.014847 -0.630169,-0.1187105 0.182116,-0.1290556 0.160721,-0.4164805 0.241083,-0.62472081 -0.0028,1.7023e-4 -0.0057,3.4131e-4 -0.0085,5.1065e-4 -3.553987,0.003707 5.200726,-1.0576e-4 1.866122,5.1064e-4 -0.586552,-1.1038e-4 -1.173107,-2.1063e-4 -1.759654,-0.001969 -1.988542,-0.008035 -3.977299,-0.0273775 -5.965714,-9.7631e-4 -0.625652,0.0167807 -1.276474,0.0144735 -1.846257,0.30864943 -0.626867,0.3067106 -1.176308,0.7424393 -1.805241,1.014118 -0.73255,0.104325 -1.426496,0.3555157 -2.064346,0.734425 -0.831384,0.5061781 -1.702289,0.5208572 -2.655215,0.5662001 -1.087578,0.145701 -2.122488,0.4579202 -3.138562,0.8738148 -0.487002,0.1676733 -0.611656,0.2425187 -1.139806,0.288994 -0.199345,0.017542 -0.800457,0.00138 -0.600342,0.00159 6.317649,0.00645 2.834007,8.202e-4 1.44985,-8.731e-4 -2.313551,-0.014377 -4.62802,-0.055841 -6.936679,-0.218559 C 20.913074,4.250252 17.238505,3.7827197 13.547754,3.4687435 10.677518,3.4690081 7.8072773,3.4683466 4.9370458,3.4630391 4.8851618,3.6712132 4.7589254,3.8741989 4.7813936,4.0875615 c 0.051414,0.4882386 7.5735954,-1.5040641 -1.6364082,-0.0019 1.8211537,-2.14e-5 3.6423078,-0.00114 5.463461,5.821e-4 1.4411076,0.00116 2.8822156,0.00225 4.3233186,0.00636 2.536856,0.00657 5.074924,0.034453 7.611185,-0.031031 1.047798,-0.054743 2.104442,-0.1363768 3.084686,-0.5451919 0.974149,-0.3696346 1.860047,-0.8365818 2.938512,-0.6884384 0.640051,3.14e-5 1.280102,-6.086e-4 1.920153,-7.409e-4 0.279506,-6.64e-5 1.118031,1.48e-5 0.838523,-3.81e-5 -2.417469,-4.498e-4 -4.393007,-3.439e-4 -2.090741,-4.233e-4 1.796749,-5.027e-4 3.593497,5.556e-4 5.390243,0.00116 1.11974,-1.027e-4 2.239478,5.556e-4 3.359219,2.193e-4 2.649193,-9.79e-4 5.298389,7.59e-5 7.947585,-9.525e-4 1.605431,3.969e-4 3.210862,-3.44e-4 4.816293,3.969e-4 C 47.04354,2.4998021 45.862589,2.1276731 44.28114,2.2056826 c -0.599829,0.00232 -1.199661,0.00421 -1.799484,0.00774 6.808454,0.00187 2.987362,0.033004 1.45043,-0.036965 C 42.286078,2.0915899 40.645352,1.9025339 39.030759,1.5655537 37.668324,1.23839 36.399136,0.76254106 34.971606,0.9475381 c -1.131808,-3.7836e-4 -2.263616,-2.9898e-4 -3.395422,5.556e-5 -2.083797,-3.6248e-4 -4.167589,-6.5881e-4 -6.251385,-0.001159 -2.624827,0.003431 4.782358,-0.00164 2.290292,1.3168e-4 -0.633484,-5.5e-6 -1.266969,-7.8317e-4 -1.900451,-0.002707 -2.115406,-0.00723 -4.231455,-0.0409444 -6.346305,0.0119899 -0.790316,0.0351522 -1.602825,0.0784933 -2.330006,0.42179136 -0.597845,0.3035448 -1.044157,0.8918158 -1.764716,0.8270634 -0.601522,5.927e-4 -1.203044,4.551e-4 -1.804567,4.948e-4 -0.736592,3.281e-4 -1.473185,-5.4e-6 -2.209778,-2.804e-4 -0.592035,3.942e-4 -1.184069,3.54e-5 -1.7761043,-1.088e-4 -0.669114,-8.413e-4 -1.3382294,0.0023 -2.0073442,0.00183 -2.3726751,0.00153 -4.7453523,0.0034 -7.11802701,7.567e-4 z" />
    <path
       style="fill:#000000;stroke-width:0.264583"
       id="path2"
       d="m 5.5251378,48.131587 c 2.7985159,-0.0034 5.5970342,-0.0011 8.3955512,-2.12e-4 1.612338,5.29e-4 3.224677,0.0016 4.837015,0.0016 0.958234,2.65e-4 1.916468,0.0011 2.874701,5.3e-4 0.651921,2.64e-4 1.30384,5.29e-4 1.955761,5.29e-4 1.887785,0.361725 -5.906466,-0.956268 -2.318393,0.978106 0.382485,0.221829 0.785396,0.27472 1.21934,0.28956 2.137978,0.0208 4.276113,-0.0013 6.414126,-0.0078 1.837545,-0.0037 -2.04388,5.29e-4 -2.994069,0.09613 -0.192305,0.01934 0.367323,0.120785 0.548072,0.18923 0.517126,0.195816 1.019652,0.400365 1.548104,0.567 1.113817,0.357182 2.295965,0.364948 3.454086,0.396899 2.601986,0.03397 5.204367,0.01757 7.806531,0.01164 1.224063,-0.01198 2.435127,0.08319 3.63216,-0.19164 1.306407,-0.435917 2.623262,-0.775901 3.988125,-0.95853 1.219068,-0.404312 2.415509,-0.939472 3.677076,-1.197829 0.956869,-0.06698 1.700557,-0.207272 2.544853,-0.628428 0.628806,-0.385736 1.727689,-0.461923 1.077523,-1.30352 -1.955429,-0.175475 -3.928718,-0.12831 -5.891371,-0.129646 -3.743415,-0.0027 -7.486819,0.0056 -11.230231,0.0078 -1.569951,-1.46e-4 -3.139901,2.01e-4 -4.709851,-2.65e-4 -4.701937,7.94e-4 6.062848,-0.0021 0.631023,-1.59e-4 -1.305486,-2.64e-4 -2.610974,2.65e-4 -3.91646,7.94e-4 -3.178381,0.0011 -6.356762,5.3e-5 -9.535142,-5.8e-5 -1.359032,-2.7e-5 -2.718065,-1.51e-4 -4.077097,-0.0011 -0.698087,2.64e-4 -1.396174,-8.5e-5 -2.094261,-0.0011 -0.08582,1.03e-4 -0.343273,2.65e-4 -0.257455,2.65e-4 6.755884,0.0016 3.392711,-2.65e-4 1.852531,5.29e-4 -1.094778,7.94e-4 -2.189557,9.3e-5 -3.284335,5.29e-4 -2.418178,-0.0026 -4.8363575,0.0011 -7.2545353,-1.67e-4 -0.9725909,-9e-5 -1.9451818,1.19e-4 -2.9177724,-5.29e-4 -0.1207145,-5.29e-4 -1.704137,2.33e-4 -1.53812315,2.52e-4 4.66544795,5.29e-4 4.49409425,5.29e-4 3.05714085,-2.07e-4 -1.832653,0.04714 -4.6844201,-0.681072 -5.1270174,1.399712 0.2788341,0.918813 1.19911674,1.248421 2.04054006,1.49868 0.98083198,0.218852 1.99239524,0.233714 2.99294024,0.248737 2.4079565,0.01617 4.8159513,7.94e-4 7.2239091,-0.0045 1.428878,-0.0029 2.85776,-0.0031 4.286641,-0.0036 0.234038,5.1e-5 0.468076,1.01e-4 0.702113,1.51e-4 -0.414569,1.1e-5 2.050946,-2.57e-4 1.538209,-2.65e-4 -6.119722,-0.0016 -2.456163,-7.93e-4 -1.105829,-2.64e-4 3.164784,0.664649 5.489249,-0.553874 8.360622,-1.068049 0.970189,-0.184814 1.958283,-0.187597 2.94185,-0.197218 4.477729,-0.0013 -6.134436,-0.0085 -0.734394,0.0036 1.018859,0.0034 2.037721,0.0036 3.056584,0.0043 2.282235,0.0016 4.564473,-0.0011 6.84671,2.65e-4 0.684543,5.29e-4 1.369089,7.93e-4 2.053633,2.64e-4 1.629608,-7.94e-4 6.009274,-7.94e-4 -0.967367,-2.59e-4 0.845285,-1.38e-4 1.690571,1.93e-4 2.535854,2.64e-4 0.41443,-1.69e-4 0.828857,0.0013 1.243285,5.3e-4 1.683617,-7.94e-4 0.8911,-2.65e-4 4.677642,-7.94e-4 0.274424,-3.5e-5 1.097294,-0.01442 0.82327,2.64e-4 -1.185262,0.06398 -2.378676,0.02701 -3.556826,0.17158 -0.112828,0.01384 0.165079,0.156321 0.247619,0.234484 0.602914,0.618427 -0.201565,0.203351 -0.779238,0.219925 -0.91599,-0.152585 -8.871675,0.344135 -3.34174,0.02553 0.640334,-0.03689 -1.282793,-0.0013 -1.92419,-0.0019 -2.971147,-0.0011 -5.942288,-0.0081 -8.913432,-0.01183 -0.923737,-0.0021 -1.847474,-0.0024 -2.771213,-0.003 -2.045117,0.0021 -4.090231,1.27e-4 -6.135347,1.32e-4 -0.87823,1.46e-4 -1.75646,2.65e-4 -2.634691,7.94e-4 -1.824341,-2.57e-4 0.284991,5.3e-5 2.750901,1.51e-4 0.19491,5e-6 -0.38982,-1.35e-4 -0.584729,-1.22e-4 -0.634469,3.4e-5 -1.268937,5e-5 -1.903405,2.19e-4 -0.968413,-5.29e-4 -1.936825,-1.74e-4 -2.905237,-0.0011 -1.90848,-0.0013 -3.816965,-7.94e-4 -5.725445,1.19e-4 -0.6179545,-5.29e-4 -1.2359084,2.9e-5 -1.8538626,-2.11e-4 -0.3799962,5.29e-4 -0.7599929,2.64e-4 -1.1399893,1.58e-4 0,0 3.9368565,0.623536 3.9368565,0.623536 v 0 c 0.3806584,-1.62e-4 0.7613169,-2.65e-4 1.1419744,1.59e-4 0.617072,-2.41e-4 1.234143,2.64e-4 1.851215,-2.12e-4 2.77786,0.0013 -4.8709,0.0011 -2.148422,1.19e-4 0.972736,-7.94e-4 1.945472,-5.29e-4 2.918208,-0.0011 2.529921,7.93e-4 5.059842,-5.29e-4 7.589763,2.48e-4 0.881393,5.3e-4 1.762785,5.3e-4 2.644178,7.94e-4 1.522506,-6.1e-5 4.909502,-0.0019 -1.739997,-2.4e-5 0.931338,-5.29e-4 1.862676,-2.64e-4 2.794014,-0.0011 2.984755,5.29e-4 5.969511,9.3e-5 8.954265,0.0052 4.35696,0.0048 8.715301,0.04328 13.071581,-0.03775 0.807723,-0.07073 1.423704,-0.324741 0.821671,-1.122317 -0.810966,-0.929418 -10.544876,-0.724226 -1.977027,-0.726586 0.08205,-2.3e-5 -0.1641,-6.8e-5 -0.246153,-1.03e-4 -0.416634,-7.94e-4 -0.83327,7.94e-4 -1.249907,5.29e-4 -0.846495,9.3e-5 -1.692987,5.29e-4 -2.539479,2.65e-4 -2.299949,1.27e-4 -4.599895,5.29e-4 -6.899841,-2.54e-4 -0.68321,-5.29e-4 -1.366419,-2.65e-4 -2.049629,2.64e-4 -1.657141,0.0011 -0.286602,1.06e-4 2.855433,-2.51e-4 1.21761,-1.4e-4 -2.879,7.94e-4 -1.841084,2.33e-4 -1.019302,-1.53e-4 -2.038604,-0.0011 -3.057903,-0.0032 -2.375162,-0.0063 -4.750409,-0.01752 -7.125526,7.93e-4 -0.988543,0.01942 -1.978712,0.0573 -2.948573,0.269396 -1.539357,0.337675 -6.899657,1.45396 -0.508175,0.992659 -2.98961,7.94e-4 -5.97922,-0.0013 -8.96883,-2.65e-4 -1.4310533,1.43e-4 -2.862107,5.29e-4 -4.2931578,0.0035 -0.5850268,0.0016 -1.1700536,0.0029 -1.7550796,0.0046 -0.1504577,5.29e-4 -0.6018318,0.0013 -0.4513736,0.0013 0.8233434,5.29e-4 4.984112,0.0011 2.8413143,7.94e-4 -0.994116,-0.0056 -1.9957708,-0.0062 -2.9800888,-0.159787 -0.7373863,-0.134573 -1.4232829,-0.39777 -1.9925508,-0.876531 0.076264,-0.211066 0.4977827,-0.578683 0.2761598,-0.614023 -5.8447521,-0.932064 -4.5544294,-0.185243 -3.07670949,-0.254972 2.11685529,-0.0011 4.23371069,1.83e-4 6.35056549,4.5e-5 0.9707433,-5.29e-4 1.9414866,-2.64e-4 2.9122298,-5.29e-4 0.5953123,-2.64e-4 1.1906224,-2.3e-4 1.7859347,4e-5 0.173939,7.9e-5 0.695757,1.72e-4 0.521818,1.67e-4 -4.3175253,-1.43e-4 -4.5096072,-5.3e-5 -2.9101798,-2.65e-4 1.0926553,5.29e-4 2.1853107,-2.64e-4 3.2779658,5.29e-4 2.094336,0.0011 4.188675,-0.0035 6.283009,7.94e-4 0.69391,-7.94e-4 1.387822,-0.0013 2.081732,-0.0011 1.354303,-0.0011 2.708608,-0.0011 4.062911,-0.0011 2.121462,-7.4e-5 0.144239,4e-5 -2.235959,-5.29e-4 -2.58396,-5.29e-4 6.595146,-5.29e-4 3.936677,2.65e-4 1.301599,5.29e-4 2.603197,0.0011 3.904796,0.0011 2.408066,0.0011 4.816131,-2.64e-4 7.224197,-1.61e-4 1.561552,-7.94e-4 3.123104,-0.0013 4.684654,-0.0039 1.230162,-0.0011 10.689764,-0.0083 3.421012,-0.0067 1.94849,-1.3e-5 3.896897,0.0061 5.845061,0.04337 0.738905,-0.752541 -0.846693,0.262705 -1.078719,0.325872 -0.810437,0.378912 -1.66978,0.339585 -2.533174,0.54361 -1.238107,0.338693 -2.424655,0.843936 -3.669067,1.162757 -1.356908,0.21427 -2.657689,0.617455 -3.981233,0.975031 -1.204624,0.170329 -2.415188,0.10754 -3.630147,0.119235 -1.39741,0.0036 -4.245543,0.0013 2.029696,0.0035 0.66082,2.43e-4 -2.643156,0.005 -1.982446,-0.007 -1.145408,-0.02106 -2.320851,0.0021 -3.4353,-0.291687 -2.347711,-0.668978 -4.233021,-1.669355 -6.98615,-0.96697 -0.381322,0.0019 -0.762646,0.0035 -1.143965,0.0059 -0.134668,7.94e-4 -0.538673,0.0026 -0.404003,0.0028 2.999935,0.0043 4.542807,-0.0053 3.013989,0.0035 -0.41231,5.3e-4 -0.813034,0.06417 -1.197851,-0.119925 -2.14487,-0.888611 -0.965774,-1.954977 -5.583306,-1.153734 -0.650057,-4.2e-5 -1.300113,4.5e-5 -1.950169,5.29e-4 -0.955614,-5.29e-4 -1.911228,2.65e-4 -2.866841,5.3e-4 -1.606168,5e-6 -3.212335,0.0011 -4.818503,0.0016 -2.7994125,7.94e-4 -5.5988269,0.0032 -8.3982392,-2.12e-4 z" />
  </g>
</svg>
