<?xml version="1.0" encoding="UTF-8" standalone="no"?>
<!-- Created with Inkscape (http://www.inkscape.org/) -->

<svg
   width="200"
   height="200"
   viewBox="0 0 52.916667 52.916667"
   version="1.1"
   id="svg1"
   inkscape:version="1.3.2 (091e20e, 2023-11-25)"
   sodipodi:docname="left_missing.svg"
   xmlns:inkscape="http://www.inkscape.org/namespaces/inkscape"
   xmlns:sodipodi="http://sodipodi.sourceforge.net/DTD/sodipodi-0.dtd"
   xmlns="http://www.w3.org/2000/svg"
   xmlns:svg="http://www.w3.org/2000/svg">
  <sodipodi:namedview
     id="namedview1"
     pagecolor="#ffffff"
     bordercolor="#000000"
     borderopacity="0.25"
     inkscape:showpageshadow="2"
     inkscape:pageopacity="0.0"
     inkscape:pagecheckerboard="0"
     inkscape:deskcolor="#d1d1d1"
     inkscape:document-units="mm"
     inkscape:zoom="0.2102413"
     inkscape:cx="-335.32897"
     inkscape:cy="9.5128787"
     inkscape:window-width="1312"
     inkscape:window-height="449"
     inkscape:window-x="0"
     inkscape:window-y="38"
     inkscape:window-maximized="0"
     inkscape:current-layer="layer1" />
  <defs
     id="defs1" />
  <g
     inkscape:label="Layer 1"
     inkscape:groupmode="layer"
     id="layer1">
    <path
       style="fill:#000000;stroke-width:0.264583"
       id="path1"
       d="m 4.8694101,6.1962101 c 2.1041593,-0.011761 4.20839,-0.00957 6.3125569,-7.938e-4 1.116964,0.00318 2.233935,0.00288 3.350894,0.00701 0.557228,0.00414 1.114449,8.467e-4 1.671689,0.00303 0.562049,-0.00553 1.124108,0.00233 1.686153,-0.00111 0.593322,0.00151 1.186626,-0.00146 1.779946,-2.333e-4 0.907534,-0.00511 1.815082,-0.00127 2.722619,-0.00343 0.997977,-9.26e-5 1.995953,-8.202e-4 2.99393,3.44e-4 0.975771,-7.144e-4 1.951555,-0.00177 2.927325,0.0013 0.675105,-9.261e-4 1.350245,0.00395 2.025348,9.789e-4 0.567603,0.00177 1.135176,0.00124 1.702774,7.673e-4 0.57423,0.00151 1.148434,-0.00119 1.722667,9.79e-4 0.440386,0.00233 0.880751,-8.202e-4 1.32115,6.614e-4 0.587742,-9.05e-5 1.175496,-0.00282 1.763246,-0.00303 0.695468,0.00111 1.390952,0.00222 2.08642,-4.762e-4 0.767318,8.202e-4 1.53462,-0.00127 2.301938,0.00198 2.290186,0.9248986 -4.419055,-2.5182846 -2.08113,-1.1546195 1.238411,0.7223393 2.489311,1.4230448 3.733966,2.1345671 0.443839,0.1445633 0.899507,0.2439932 1.36175,0.3033207 1.446332,-0.068169 0.866045,0.2487692 -2.966069,-1.7595694 -0.238628,-0.1250601 0.414565,0.3471553 0.593897,0.5482101 1.094848,1.4274971 2.946077,2.3511607 4.732681,2.4831436 0.360281,-0.010306 0.721006,-0.02173 1.081715,-0.028471 1.991807,0.2764377 -4.488849,-3.1801236 -2.182233,-1.1507147 0.462894,0.5221578 0.512866,1.205847 0.546952,1.8709145 0.0284,1.2694252 0.01765,2.5394542 0.0011,3.8089892 -0.0044,0.912279 -0.0036,1.824549 -0.01109,2.736816 2.65e-4,0.594891 -0.0053,1.189884 -7.94e-4,1.784777 -0.0028,0.629272 0.0016,1.258511 -5.29e-4,1.88778 -0.0013,0.688406 0.0026,1.376827 0.0026,2.065244 0.0046,1.167741 0.0042,2.335484 0.0089,3.503231 -0.0019,0.981205 -0.0077,1.962357 -0.0094,2.943548 -0.0062,0.728414 0.0019,1.45682 0.0019,2.185244 -0.0043,0.707885 -2.64e-4,1.415735 -0.0049,2.12362 0.008,0.588732 -0.0047,1.177478 5.29e-4,1.766192 0.0021,0.706202 -1.72e-4,1.412417 0.0037,2.118611 -0.0038,0.719521 -2.7e-5,1.439026 -0.0028,2.158545 -0.0069,0.459774 -7.94e-4,0.919496 -0.0019,1.379286 -0.0054,0.41737 7.94e-4,0.834671 -7.7e-5,1.252053 -0.0024,0.481349 0.0019,0.962645 -5.29e-4,1.444012 0.0057,0.518154 0.0028,1.036365 -0.0024,1.554514 0.0029,0.386937 0.0032,0.773919 5.29e-4,1.160896 0.0045,0.383562 0.03764,0.974892 -0.06569,1.218232 -0.611864,0.05647 -1.042548,0.440523 -1.522854,0.794517 -0.517115,0.505256 -1.165196,0.503907 -1.851229,0.552199 -0.867928,0.04347 -1.737693,0.03479 -2.60645,0.03135 -0.676505,-0.0071 -1.353029,-0.006 -2.029555,-0.0104 -0.442219,-0.0038 -0.884433,-1.56e-4 -1.326676,-0.0016 -0.416915,-0.0016 -0.833811,0.0013 -1.250741,5.8e-5 -0.519512,0.0024 -1.039053,-7.94e-4 -1.558568,0.0021 -0.632545,-0.0019 -1.265074,0.0011 -1.897616,-2.65e-4 -0.688599,-7.94e-4 -1.377203,0.0016 -2.065808,0.0016 -0.772091,-0.0038 -1.544177,0.0013 -2.316271,0.0011 -0.887053,-0.0013 -1.774108,2.64e-4 -2.661164,-5.29e-4 -0.612447,-0.0046 -1.224882,-0.0016 -1.837333,-0.0028 -0.893686,5.29e-4 -1.787367,0.0051 -2.681055,0.0051 -1.112634,0.0011 -2.225286,0.0013 -3.337917,-0.0024 -0.933439,0.0016 -1.866869,0.0027 -2.800304,-0.0016 -0.621681,-0.06843 -0.931597,0.04645 -1.396554,0.475527 -0.409913,0.444305 -1.064748,0.665613 -1.657905,0.729769 -0.492252,0.05712 -0.987357,0.06212 -1.4820669,0.06067 -0.5613696,-0.0057 -1.1227311,-0.0044 -1.6841179,-0.0071 -0.7242439,0.0011 -1.448481,-2.1e-5 -2.1727242,-1.93e-4 -0.4845846,-0.0036 -0.9691298,-0.0024 -1.4537089,-0.0016 -0.2106562,4.3e-5 -0.42131,-7.94e-4 -0.6319631,-0.0019 0,0 3.2280198,2.345277 3.2280198,2.345277 v 0 c 0.208914,-0.0011 0.4178292,-0.0019 0.6267463,-0.0019 0.4830406,7.94e-4 0.9660459,0.0019 1.4490914,-0.0016 0.7251266,8.7e-5 1.4502665,-2.65e-4 2.1753835,0.0035 0.562593,7.93e-4 1.125127,0.0081 1.687727,0.0071 0.507747,-0.0037 1.015519,-0.0398 1.517306,-0.119976 0.64932,-0.154114 1.312814,-0.410215 1.777519,-0.907706 0.378606,-0.302437 0.771119,-0.245356 1.236255,-0.241136 0.93208,-0.0042 1.864156,-0.0029 2.796241,-0.0016 1.110372,-0.0039 2.220764,-0.0034 3.33114,-0.0024 0.89839,8.2e-5 1.796774,0.0046 2.695162,0.0051 0.60985,-0.0013 1.219686,0.0019 1.829535,-0.0028 0.886679,-7.93e-4 1.773359,7.94e-4 2.660038,-5.29e-4 0.773153,-1.11e-4 1.546299,0.0049 2.319449,0.0011 0.690092,-4.8e-5 1.380183,0.0026 2.070269,0.0016 0.632272,-0.0013 1.264529,0.0013 1.896801,-2.65e-4 0.521409,0.0028 1.042844,-2.51e-4 1.564254,0.0021 0.416909,-0.0013 0.833789,0.0016 1.250685,-1.6e-5 0.441243,-0.0013 0.882438,0.0019 1.323671,5.29e-4 0.673592,-0.0011 1.347136,0.0045 2.020726,0.0038 0.87581,5.29e-4 1.753592,0.0099 2.627304,-0.05987 0.743067,-0.07655 1.417638,-0.192884 1.975414,-0.729004 0.492225,-0.355037 1.00145,-0.579327 1.549656,-0.818102 0.367499,-0.436529 0.213141,-0.95734 0.235376,-1.513883 -0.0027,-0.386818 -0.0024,-0.773641 5.3e-4,-1.16042 -0.005,-0.518914 -0.008,-1.037891 -0.0024,-1.556813 -0.0026,-0.481574 0.0019,-0.963071 -5.29e-4,-1.444625 -7.94e-4,-0.41741 0.0053,-0.834734 -7.7e-5,-1.25213 -0.0011,-0.46045 0.0049,-0.920825 -0.0019,-1.381255 -0.0028,-0.720479 0.0011,-1.440939 -0.0028,-2.161418 0.0039,-0.704946 0.0016,-1.409909 0.0037,-2.114863 0.0053,-0.588523 -0.0075,-1.177078 5.29e-4,-1.76562 -0.0046,-0.709562 -5.29e-4,-1.419087 -0.0049,-2.128647 2.4e-5,-0.727784 0.0081,-1.455549 0.0019,-2.18332 -0.0016,-0.984385 -0.0075,-1.968728 -0.0094,-2.953126 0.0047,-1.164712 0.0043,-2.329421 0.0089,-3.494129 -6.9e-5,-0.687571 0.0039,-1.375145 0.0024,-2.062706 -0.0021,-0.62948 0.0021,-1.258929 -7.93e-4,-1.888411 0.0045,-0.594827 -0.0013,-1.189739 10e-5,-1.784568 -0.0052,-0.912794 -0.0019,-1.82557 0.0039,-2.738353 -0.0013,-1.274473 0.0062,-2.54891 0.0037,-3.823381 -0.0098,-0.752172 -0.06612,-1.4680664 -0.404566,-2.1578505 -1.31631,-1.2140184 -2.887766,-2.8229774 -4.734788,-2.6908352 -0.349533,0.00796 -0.70322,0.033655 -1.050414,-0.01606 -3.037139,-0.4933592 3.510814,2.8262321 2.135262,1.45811 C 44.468748,6.4417664 42.869021,5.2747423 41.056136,5.0927626 40.619304,5.0032893 40.183382,4.8983468 39.777625,4.70761 47.031843,9.0180889 39.672011,4.1126362 38.016471,3.8635836 c -0.76549,0.00331 -1.530962,0.00116 -2.296451,0.00198 -0.695908,-0.00267 -1.391828,-0.00161 -2.087735,-4.762e-4 -0.590531,-2.128e-4 -1.181065,-0.00293 -1.771589,-0.00303 -0.439801,0.00148 -0.879573,-0.00169 -1.319361,6.614e-4 -0.573323,0.0022 -1.146622,-5.291e-4 -1.719942,9.79e-4 -0.566891,-4.498e-4 -1.133758,-0.00101 -1.700654,7.673e-4 -0.674211,-0.00294 -1.348459,0.00188 -2.022674,9.789e-4 -0.97457,0.00311 -1.949154,0.00201 -2.923726,0.0013 -0.997658,0.00116 -1.995314,4.233e-4 -2.992973,3.44e-4 -0.910685,-0.00214 -1.82138,0.00167 -2.732062,-0.00343 -0.593534,0.00122 -1.187053,-0.00175 -1.780588,-2.334e-4 -0.563058,-0.00338 -1.126128,0.00439 -1.68919,-0.00111 -0.554455,0.0022 -1.10889,-0.00111 -1.663333,0.00303 -1.110529,0.00415 -2.2210691,0.00381 -3.3316015,0.00701 -2.1048988,0.00888 -4.20986,0.010851 -6.3147511,-7.937e-4 z" />
  </g>
</svg>
