<?xml version="1.0" encoding="UTF-8" standalone="no"?>
<!-- Created with Inkscape (http://www.inkscape.org/) -->

<svg
   width="200"
   height="200"
   viewBox="0 0 52.916668 52.916666"
   version="1.1"
   id="svg1"
   inkscape:version="1.3.2 (091e20e, 2023-11-25)"
   sodipodi:docname="left_only.svg"
   xmlns:inkscape="http://www.inkscape.org/namespaces/inkscape"
   xmlns:sodipodi="http://sodipodi.sourceforge.net/DTD/sodipodi-0.dtd"
   xmlns="http://www.w3.org/2000/svg"
   xmlns:svg="http://www.w3.org/2000/svg">
  <sodipodi:namedview
     id="namedview1"
     pagecolor="#ffffff"
     bordercolor="#000000"
     borderopacity="0.25"
     inkscape:showpageshadow="2"
     inkscape:pageopacity="0.0"
     inkscape:pagecheckerboard="0"
     inkscape:deskcolor="#d1d1d1"
     inkscape:document-units="mm"
     inkscape:zoom="0.2102413"
     inkscape:cx="397.16269"
     inkscape:cy="561.25984"
     inkscape:window-width="1312"
     inkscape:window-height="449"
     inkscape:window-x="0"
     inkscape:window-y="38"
     inkscape:window-maximized="0"
     inkscape:current-layer="layer1" />
  <defs
     id="defs1" />
  <g
     inkscape:label="Layer 1"
     inkscape:groupmode="layer"
     id="layer1">
    <path
       style="fill:#000000;stroke-width:0.264583"
       id="path1"
       d="m -0.71896829,0.75267618 c 0.0148127,1.80047572 0.009795,3.60117822 -0.003254,5.40166702 0.001291,0.8090548 -0.003248,1.618125 -0.0140819,2.4271086 0.006188,0.4284289 0.002442,0.856914 -0.001632,1.2853419 0.004642,0.5333883 0.00559,1.0668293 0.00634,1.6002453 0.0328745,0.861599 0.62364012,1.586362 0.91687487,2.384253 0.25490173,0.720722 0.30655027,1.491843 0.34078095,2.249747 0.0254564,0.817091 0.006933,1.634461 0.008257,2.451688 -0.007585,0.674829 -0.004171,1.34964 -0.007614,2.024482 0.0300806,0.621567 -0.11831712,1.265849 0.15243077,1.835356 0.4926594,0.561296 0.7831708,1.18236 0.9658869,1.898477 0.1379787,0.518797 0.1420701,1.056258 0.1457623,1.589196 0.00478,0.637118 -3.678e-4,1.274264 -0.00216,1.911396 6.112e-4,0.405228 -0.01301,0.810369 -0.00667,1.215544 -0.00161,0.468815 0.0011,0.937554 0.00222,1.40635 0.003,0.623075 0.0033,1.246114 -0.00226,1.869186 0.00285,0.605224 0.00323,1.210448 0.00371,1.815674 0.2979253,0.925404 0.7542668,1.772537 1.0334135,2.708011 0.1687084,0.48201 0.2144797,0.974344 0.2278457,1.480304 0.00728,0.649298 0.00501,1.298662 0.00285,1.947994 -0.00505,0.703027 -0.00756,1.406128 -0.00333,2.109169 0.00108,0.513249 -0.003,1.026488 -0.00926,1.539695 0.00768,0.396854 0.00382,0.793819 3.175e-4,1.190699 0.00953,0.466754 -8.467e-4,0.933556 0.00467,1.400323 0.0044,0.448519 -0.00713,0.897001 -9.525e-4,1.345472 0.00238,0.370417 -5.292e-4,0.740836 -0.00464,1.111227 0.00541,0.350747 0.00461,0.701608 0.00204,1.052422 0.00719,0.455348 0.00401,0.910796 -7.144e-4,1.366155 -3.968e-4,0.03101 -7.673e-4,0.06201 -0.00116,0.09302 0.00119,0.07105 0.00241,0.142095 0.0036,0.213144 0,0 3.9872035,0 3.9872035,0 v 0 c 0.00119,-0.07105 0.00241,-0.142095 0.0036,-0.213144 -3.969e-4,-0.03101 -7.673e-4,-0.06201 -0.00116,-0.09302 -0.00473,-0.455359 -0.00792,-0.910807 -7.143e-4,-1.366155 -0.00259,-0.350814 -0.00338,-0.701675 0.00204,-1.052422 -0.00411,-0.370391 -0.00702,-0.74081 -0.00464,-1.111227 0.00618,-0.448471 -0.00535,-0.896953 -9.525e-4,-1.345472 0.00552,-0.46677 -0.00486,-0.933577 0.00466,-1.400336 -0.00352,-0.396886 -0.00741,-0.793856 2.298e-4,-1.190718 -0.0063,-0.51313 -0.010306,-1.026292 -0.00882,-1.539465 0.00492,-0.702646 0.0035,-1.405334 0.00413,-2.107993 0.00235,-0.653622 0.013314,-1.307383 0.00554,-1.960944 -0.017132,-0.5418 -0.045329,-1.070441 -0.2387803,-1.584452 -0.2709524,-0.900493 -0.6410018,-1.738754 -1.0273858,-2.592287 4.761e-4,-0.605229 8.73e-4,-1.210453 0.00371,-1.815676 -0.00558,-0.623078 -0.00529,-1.246122 -0.00233,-1.869197 0.00108,-0.468717 0.00369,-0.937379 0.00238,-1.406112 0.00681,-0.404784 -0.00429,-0.809607 -0.00127,-1.214451 0.00243,-0.63935 0.00744,-1.278681 0.00907,-1.918044 -0.011086,-0.56355 -0.00511,-1.134309 -0.154143,-1.682399 C 5.4303923,23.445549 5.1766111,22.760617 4.6557513,22.149627 4.274429,21.987133 4.5944963,20.950324 4.5079669,20.577616 c -0.00206,-0.674482 0.00384,-1.34893 0.0022,-2.023419 0.00742,-0.822697 0.00388,-1.645739 -0.00679,-2.468341 C 4.478236,15.288683 4.404085,14.474711 4.1556846,13.714112 3.8852254,12.946841 3.3544233,12.257852 3.2485855,11.467039 c 7.408e-4,-0.533416 0.00169,-1.066857 0.00634,-1.6002453 -0.00407,-0.4284279 -0.00782,-0.856913 -0.00164,-1.2853419 C 3.2424328,7.7724682 3.2378926,6.963398 3.2391864,6.1543432 3.2261371,4.3538544 3.221118,2.5531519 3.235932,0.75267618 Z" />
  </g>
</svg>
