<?xml version="1.0" encoding="UTF-8" standalone="no"?>
<!-- Created with Inkscape (http://www.inkscape.org/) -->

<svg
   width="200"
   height="200"
   viewBox="0 0 52.916667 52.916667"
   version="1.1"
   id="svg1"
   inkscape:version="1.3.2 (091e20e, 2023-11-25)"
   sodipodi:docname="right_missing.svg"
   xmlns:inkscape="http://www.inkscape.org/namespaces/inkscape"
   xmlns:sodipodi="http://sodipodi.sourceforge.net/DTD/sodipodi-0.dtd"
   xmlns="http://www.w3.org/2000/svg"
   xmlns:svg="http://www.w3.org/2000/svg">
  <sodipodi:namedview
     id="namedview1"
     pagecolor="#ffffff"
     bordercolor="#000000"
     borderopacity="0.25"
     inkscape:showpageshadow="2"
     inkscape:pageopacity="0.0"
     inkscape:pagecheckerboard="0"
     inkscape:deskcolor="#d1d1d1"
     inkscape:document-units="mm"
     inkscape:zoom="0.2102413"
     inkscape:cx="397.16269"
     inkscape:cy="558.88163"
     inkscape:window-width="1728"
     inkscape:window-height="938"
     inkscape:window-x="0"
     inkscape:window-y="38"
     inkscape:window-maximized="0"
     inkscape:current-layer="layer1" />
  <defs
     id="defs1" />
  <g
     inkscape:label="Layer 1"
     inkscape:groupmode="layer"
     id="layer1">
    <path
       style="fill:#000000;stroke-width:0.264583"
       id="path1"
       d="m 41.375811,1.5273287 c -2.43777,0.3745752 -4.880173,0.7104314 -7.334189,0.9576421 -0.865979,0.090917 -1.737413,0.1264069 -2.607924,0.1281311 -0.421658,-0.00334 -0.843333,-0.00515 -1.264989,-0.00978 -0.412834,-3.995e-4 -0.825709,-8.09e-5 -1.238562,-0.00158 -0.64752,0.00188 -1.295045,0.00305 -1.942568,0.00214 -0.890363,0.00209 -1.780724,0.0027 -2.671086,1.448e-4 -0.716281,5.318e-4 -1.432558,7.89e-5 -2.148839,4.99e-5 -0.656972,-8.123e-4 -1.313952,-0.00126 -1.970924,5.503e-4 -0.76255,-4.604e-4 -1.525091,9.419e-4 -2.287639,-0.00124 -0.677766,8.097e-4 -1.35553,5.848e-4 -2.033296,6.35e-4 -0.949998,0.00262 -1.899997,0.00301 -2.849995,2.297e-4 -0.799009,7.66e-5 -1.598019,0.00133 -2.397027,-1.21e-4 -0.7906546,-9.604e-4 -1.5813061,0.00189 -2.3719639,5.662e-4 -0.6477063,-4.603e-4 -1.2954084,3.63e-5 -1.9431145,-0.0024 C 5.7905022,2.6057358 5.2673069,2.6008756 4.744117,2.6031722 4.2267663,2.6022726 3.7094281,2.6030151 3.1920804,2.6033971 2.6654649,2.5965703 2.2505208,2.5239875 1.8154138,2.8377241 1.3984915,3.1933461 0.9978351,3.5660768 0.83177405,4.0937303 0.71686803,4.6634083 0.73090134,5.2461203 0.7294723,5.8240854 c -8.2285e-4,0.5043136 0.006387,1.0085618 0.0107289,1.5128497 0.003381,0.8544869 5.2387e-4,1.7089821 0.003085,2.5634674 0.003166,0.5962315 -0.007519,1.1924615 -0.003583,1.7886745 5.5034e-4,0.62803 0.002625,1.256036 1.6508e-4,1.884067 0.002196,0.790367 0.001368,1.580729 0.004157,2.371098 5.8208e-4,0.92309 -0.003037,1.846187 -6.6146e-4,2.769274 -0.002948,0.918792 0.001273,1.837578 6.7733e-4,2.75637 8.4931e-4,1.019406 0.001746,2.038827 -0.001664,3.05823 -0.002535,0.749526 7.782e-5,1.499062 -1.4867e-4,2.248592 0.001606,0.931662 0.002785,1.863339 -9.892e-5,2.794998 -0.00297,0.624424 -0.003135,1.248881 -3.0163e-4,1.87331 0.004866,0.8493 -0.002021,1.698612 5.08e-4,2.547909 6.2706e-4,0.913971 0.001757,1.82794 9.1281e-4,2.741911 -0.004811,0.625226 -0.001725,1.250442 -0.003176,1.875671 -0.002421,0.496165 7.2761e-4,0.992309 -0.001087,1.488485 -0.13525828,0.827053 0.33968816,1.332333 0.71858596,1.997448 0.3200732,0.547053 0.4508278,1.160119 0.8251709,1.67313 0.4510706,0.397341 0.7122442,0.832532 0.8762849,1.404974 0.4650657,1.821868 2.9646096,2.435093 4.7322911,2.643863 -7.64756787,-3.889632 0.2527742,1.08141 1.7098965,1.226478 -6.9604774,-3.860869 0.224486,0.520063 1.9222099,1.262968 0.358595,0.02648 0.752163,-0.01061 1.123197,-0.03471 0.492295,-0.01003 0.984628,-0.01656 1.477014,-0.01939 0.590355,-7.94e-4 1.180709,-0.0024 1.771065,-0.0016 0.516757,0.0019 1.033506,-1.8e-4 1.550267,0.0011 0.518534,-0.0024 1.037079,-0.0011 1.555611,0.0011 0.435566,-0.0016 0.87115,-1.72e-4 1.30672,-0.0021 0.55344,7.93e-4 1.106868,2.64e-4 1.660304,3.4e-5 0.576929,0.0011 1.153847,-7.94e-4 1.730777,7.94e-4 0.610497,5.29e-4 1.220998,-0.0016 1.831499,-0.0016 0.64546,0.0016 1.290911,-2.64e-4 1.936373,0.0016 0.773496,-0.0016 1.546992,-0.0011 2.320491,-0.0029 0.809982,0.0019 1.619962,2.64e-4 2.429941,0.0019 0.812292,-7.94e-4 1.624584,-0.0019 2.436876,-2.65e-4 0.424429,0.0031 0.848834,0.0019 1.27326,0.0013 0.538088,5.29e-4 1.076166,-0.0013 1.614257,8.2e-5 0.491741,-5.29e-4 0.98348,-7.93e-4 1.475224,7.94e-4 0.423818,-0.0011 0.84764,-0.0013 1.271463,1.48e-4 0.570839,-0.275934 0.956839,-0.93355 1.567992,-1.097214 0.496594,-0.152585 1.004203,-0.166142 1.5175,-0.172114 0.509635,7.94e-4 1.01927,0.0033 1.528908,0.0065 0.293348,0.0016 0.586631,0.0072 0.879967,0.0041 0.45431,5.29e-4 0.908608,-7.94e-4 1.362916,-0.0011 0.370557,-7.93e-4 0.741103,0.0034 1.11165,7.94e-4 0.350649,-0.0011 0.701299,2.1e-5 1.051946,0.0016 0.296045,-0.0028 0.592111,-0.0019 0.888164,-0.0013 0,0 -3.22951,-2.346376 -3.22951,-2.346376 v 0 c -0.297301,5.3e-4 -0.594614,0.0013 -0.891905,-0.0013 -0.349268,0.0016 -0.698542,0.0026 -1.047811,0.0016 -0.369691,-0.0024 -0.739375,0.0016 -1.109072,0.0011 -0.455337,-5.29e-4 -0.910667,-0.0016 -1.366004,-0.0016 -0.292095,-0.0036 -0.584203,-0.0021 -0.876319,-0.0034 -0.511688,-0.0019 -1.023466,-0.01111 -1.535059,0.0038 -0.547965,0.02082 -1.088041,0.09095 -1.602272,0.294513 -0.522086,0.281676 -0.90992,0.780082 -1.481733,0.963586 -0.42369,0.0013 -0.847375,0.0011 -1.271061,1.48e-4 -0.491019,0.0016 -0.982032,0.0013 -1.473049,7.94e-4 -0.538014,0.0013 -1.076018,-2.64e-4 -1.61403,8.2e-5 -0.423148,-5.29e-4 -0.846275,-0.0016 -1.269425,0.0013 -0.812589,0.0016 -1.62518,2.65e-4 -2.437768,-2.65e-4 -0.808233,0.0016 -1.616467,1.78e-4 -2.4247,0.0019 -0.776139,-0.0019 -1.552275,-0.0013 -2.328413,-0.0029 -0.644102,0.0019 -1.288195,-6.9e-5 -1.932297,0.0016 -0.611974,-1.11e-4 -1.22395,-0.0021 -1.83592,-0.0016 -0.576311,0.0016 -1.15261,-2.65e-4 -1.72892,7.93e-4 -0.553405,-2.64e-4 -1.106801,-7.93e-4 -1.660208,3.5e-5 -0.437398,-0.0019 -0.87481,-2.65e-4 -1.312203,-0.0021 -0.517567,0.0021 -1.035146,0.0035 -1.552714,0.0011 -0.515959,0.0013 -1.031905,-0.0011 -1.547861,5.3e-4 -0.591085,7.93e-4 -1.182166,-0.0013 -1.773244,0.003 -0.497499,0.0031 -0.9950523,0.0132 -1.492234,0.03116 -0.3411546,0.01336 -0.6982233,0.05893 -1.0043766,-0.120012 C 7.222975,47.2388 5.8146898,46.336478 10.994687,49.367201 11.248321,49.515597 10.490537,49.065136 10.237597,48.915562 8.9627424,48.161436 7.6839222,47.414285 6.4070854,46.663768 4.1175019,46.321148 11.006606,49.791015 8.3094832,47.885312 7.1185238,47.043818 5.89642,46.24729 4.6898883,45.428277 2.2798932,44.839719 8.1341896,47.990021 6.7594808,46.895691 6.616346,46.285487 6.4938478,45.70001 5.9513824,45.327016 5.4827096,44.84499 5.3815774,44.333013 5.0924291,43.7278 4.7584087,43.07338 4.1929823,42.677425 4.2949095,41.911139 c -0.0018,-0.496546 0.00132,-0.993058 -0.00108,-1.489593 -0.00146,-0.626309 0.00164,-1.252604 -0.00318,-1.878907 -8.467e-4,-0.913662 2.91e-4,-1.827321 9.26e-4,-2.74098 0.00254,-0.849125 -0.00436,-1.698265 5.027e-4,-2.547393 0.00285,-0.624533 0.00265,-1.24909 -2.91e-4,-1.873617 -0.00288,-0.931694 -0.00172,-1.863403 -9.9e-5,-2.795098 -2.265e-4,-0.749581 0.00238,-1.499167 -1.487e-4,-2.248744 -0.0034,-1.019969 -0.00251,-2.039955 -0.00167,-3.059926 -5.82e-4,-0.918562 0.00363,-1.837118 6.88e-4,-2.755679 0.00238,-0.923312 -0.00124,-1.846634 -6.615e-4,-2.769948 0.00279,-0.788955 0.00196,-1.577905 0.00416,-2.366858 -0.00243,-0.627959 -3.968e-4,-1.255893 2.252e-4,-1.883851 0.00402,-0.597445 -0.00662,-1.194908 -0.00353,-1.792372 0.00238,-0.854392 -6.086e-4,-1.7087946 -5.557e-4,-2.5631895 0.00196,-0.5036098 0.0032,-1.0071417 -0.0072,-1.5106676 -0.00301,-0.5475685 -0.015475,-1.0980497 0.058517,-1.642041 0.056337,-0.4217154 0.5125961,-0.7210364 0.8151469,-0.9777703 0.4052408,-0.1257885 0.8412723,-0.041552 1.2617709,-0.066744 0.5175541,3.704e-4 1.0350984,0.00114 1.5526551,2.249e-4 0.5240028,0.00228 1.0480101,-0.00254 1.572015,8.731e-4 0.6454976,-0.00246 1.2909916,-0.00193 1.9364906,-0.00241 0.791178,-0.00132 1.58235,0.00153 2.373525,5.556e-4 0.798898,-0.00146 1.597796,-1.921e-4 2.396694,-1.212e-4 0.950209,-0.0028 1.900419,-0.00235 2.850628,2.297e-4 0.678348,5.11e-5 1.356694,-1.72e-4 2.035043,6.35e-4 0.761413,-0.0022 1.522819,-7.673e-4 2.284233,-0.00124 0.657477,0.0018 1.314963,0.00138 1.972441,5.556e-4 0.716325,-2.91e-5 1.432646,-4.763e-4 2.148971,4.26e-5 0.890466,-0.00259 1.780932,-0.00196 2.671397,7.12e-5 0.649386,-9.525e-4 1.298776,1.047e-4 1.948156,0.0023 0.412417,-8.996e-4 0.824834,-7.937e-4 1.237227,0.00382 0.422732,0.00146 0.845568,0.00693 1.268253,0.00146 0.871456,-0.023498 1.743252,-0.06784 2.609239,-0.1717548 2.452029,-0.2722271 4.892514,-0.6256747 7.334557,-0.9750639 z" />
    <path
       style="fill:#000000;stroke-width:0.264583"
       id="path2"
       d="m 43.908927,0.09536257 c -2.257243,0.01009483 -4.514528,0.0044885 -6.771762,-0.005297 0,0 3.216354,2.33681793 3.216354,2.33681793 v 0 c 2.252372,-0.00988 4.504796,-0.015338 6.757181,-0.0053 z" />
  </g>
</svg>
