<?xml version="1.0" encoding="UTF-8" standalone="no"?>
<!-- Created with Inkscape (http://www.inkscape.org/) -->

<svg
   width="200"
   height="200"
   viewBox="0 0 52.916665 52.916666"
   version="1.1"
   id="svg1"
   inkscape:version="1.3.2 (091e20e, 2023-11-25)"
   sodipodi:docname="right_only.svg"
   xmlns:inkscape="http://www.inkscape.org/namespaces/inkscape"
   xmlns:sodipodi="http://sodipodi.sourceforge.net/DTD/sodipodi-0.dtd"
   xmlns="http://www.w3.org/2000/svg"
   xmlns:svg="http://www.w3.org/2000/svg">
  <sodipodi:namedview
     id="namedview1"
     pagecolor="#ffffff"
     bordercolor="#000000"
     borderopacity="0.25"
     inkscape:showpageshadow="2"
     inkscape:pageopacity="0.0"
     inkscape:pagecheckerboard="0"
     inkscape:deskcolor="#d1d1d1"
     inkscape:document-units="mm"
     inkscape:zoom="0.2102413"
     inkscape:cx="397.16269"
     inkscape:cy="561.25984"
     inkscape:window-width="1312"
     inkscape:window-height="449"
     inkscape:window-x="0"
     inkscape:window-y="38"
     inkscape:window-maximized="0"
     inkscape:current-layer="layer1" />
  <defs
     id="defs1" />
  <g
     inkscape:label="Layer 1"
     inkscape:groupmode="layer"
     id="layer1">
    <path
       style="fill:#000000;stroke-width:0.264583"
       id="path1"
       d="m 44.586117,0.75267618 c 0.0173,1.72997002 0.0049,3.46010032 -0.0034,5.19009642 -0.01098,0.7127779 -0.0073,1.425548 -0.01058,2.1383537 7.94e-4,0.5404115 0.0019,1.0808025 -0.003,1.6212243 0.0039,0.6578764 0.0071,1.3157804 0.0046,1.9736764 0.0029,0.755775 0.0013,1.511546 7.94e-4,2.267322 0.0043,0.718982 -0.0048,1.438024 -5.1e-5,2.156994 -0.101938,0.860145 0.318704,1.560678 0.760611,2.261844 0.406392,0.872626 0.440034,1.875948 0.485286,2.824238 0.03222,1.118095 0.03022,2.23716 0.02675,3.355666 -0.0095,0.848181 -0.0075,1.696385 -0.01579,2.544577 -0.133411,0.917289 0.220765,1.621809 0.578283,2.436159 0.448649,1.033158 0.560377,2.157876 0.64411,3.268681 0.06412,1.062694 0.05617,2.128327 0.05286,3.192486 -0.01294,0.934416 -0.008,1.868893 -0.01037,2.803356 -0.0081,0.709541 -0.0079,1.419016 -0.0026,2.12857 -0.0037,0.759124 2.25e-4,1.518232 -0.0032,2.277351 -0.0071,0.648986 0.0027,1.297969 0.003,1.946976 -0.0056,0.565187 -0.0053,1.130268 -0.0044,1.695442 0.0013,0.357465 -0.0087,0.714851 -0.0024,1.072261 -5.29e-4,0.537416 0.0043,1.07478 0.0026,1.612199 -7.94e-4,0.193233 -0.0026,0.386458 -0.0047,0.579681 0,0 3.991502,0 3.991502,0 v 0 c -0.0021,-0.193223 -0.0039,-0.386448 -0.0047,-0.579681 -0.0016,-0.537419 0.0033,-1.074783 0.0026,-1.612199 0.0062,-0.35741 -0.0037,-0.714796 -0.0024,-1.072261 7.94e-4,-0.565174 0.0013,-1.130255 -0.0044,-1.695442 2.65e-4,-0.649012 0.01011,-1.297998 0.003,-1.946987 -0.0035,-0.759105 2.64e-4,-1.518203 -0.0033,-2.277313 0.0053,-0.709372 0.0058,-1.418678 -2.01e-4,-2.128052 2.09e-4,-0.934471 0.01024,-1.868913 0.0036,-2.803385 -5.3e-4,-1.074671 0.02569,-2.152052 -0.04659,-3.22481 -0.09785,-1.149604 -0.199885,-2.319404 -0.649973,-3.394959 -0.317542,-0.785415 -0.714685,-1.391367 -0.560017,-2.277427 -0.0055,-0.848126 2.64e-4,-1.696215 -0.0036,-2.544345 0.0016,-1.125416 0.01574,-2.250937 -0.02016,-3.376071 -0.05176,-1.020554 -0.106572,-2.074521 -0.482179,-3.035247 -0.430668,-0.632794 -0.856851,-1.232602 -0.755494,-2.031308 0.0048,-0.71897 -0.0043,-1.438012 -5.1e-5,-2.156994 -2.64e-4,-0.755776 -0.0021,-1.511547 7.94e-4,-2.267322 -0.0024,-0.657896 7.94e-4,-1.3158 0.0046,-1.9736764 -0.0048,-0.5404218 -0.0037,-1.0808128 -0.003,-1.6212243 -0.0033,-0.7128057 5.29e-4,-1.4255758 -0.01056,-2.1383537 -0.0083,-1.7299961 -0.02066,-3.4601264 -0.0034,-5.19009642 z" />
  </g>
</svg>
