<?xml version="1.0" encoding="UTF-8" standalone="no"?>
<!-- Created with Inkscape (http://www.inkscape.org/) -->

<svg
   width="200"
   height="200"
   viewBox="0 0 52.916665 52.916666"
   version="1.1"
   id="svg1"
   inkscape:version="1.3.2 (091e20e, 2023-11-25)"
   sodipodi:docname="up_down_missing.svg"
   xmlns:inkscape="http://www.inkscape.org/namespaces/inkscape"
   xmlns:sodipodi="http://sodipodi.sourceforge.net/DTD/sodipodi-0.dtd"
   xmlns="http://www.w3.org/2000/svg"
   xmlns:svg="http://www.w3.org/2000/svg">
  <sodipodi:namedview
     id="namedview1"
     pagecolor="#ffffff"
     bordercolor="#000000"
     borderopacity="0.25"
     inkscape:showpageshadow="2"
     inkscape:pageopacity="0.0"
     inkscape:pagecheckerboard="0"
     inkscape:deskcolor="#d1d1d1"
     inkscape:document-units="mm"
     inkscape:zoom="0.2102413"
     inkscape:cx="397.16269"
     inkscape:cy="558.88162"
     inkscape:window-width="1728"
     inkscape:window-height="942"
     inkscape:window-x="0"
     inkscape:window-y="38"
     inkscape:window-maximized="0"
     inkscape:current-layer="layer1" />
  <defs
     id="defs1" />
  <g
     inkscape:label="Layer 1"
     inkscape:groupmode="layer"
     id="layer1">
    <path
       style="fill:#000000;stroke-width:0.264583"
       id="path1"
       d="m -0.72032976,3.5706957 c 0.0171283,2.2547921 0.007718,4.5097051 -0.009012,6.7644703 0.004406,0.74352 -0.0106632,1.487041 -0.006325,2.230536 0.005512,0.740954 -0.001013,1.481926 0.002003,2.222878 0.003109,0.530289 -0.007187,1.060572 -0.002774,1.590838 -2.141e-5,0.74343 0.004701,1.486843 0.004632,2.230276 0.002748,0.833914 -0.004893,1.667853 -0.001844,2.50176 0.002952,0.522059 -0.00728,1.044111 -0.002848,1.566147 0.20001539,1.073109 0.65916995,2.106589 0.92069639,3.183484 0.23981133,1.149941 0.31038592,2.321236 0.34221471,3.492118 -0.12262934,1.09288 0.12945277,1.971222 0.57781716,2.946725 0.3415861,0.682376 0.544724,1.384697 0.6366693,2.138106 0.057324,0.509214 0.051135,1.022477 0.047184,1.534044 9.022e-4,0.768834 1.872e-4,1.537657 -0.00488,2.306484 0.00176,0.839663 0.00309,1.679313 -0.00105,2.51897 -8.282e-4,0.547971 3.069e-4,1.095934 -0.00306,1.64391 2.178e-4,0.542046 0.00347,1.084122 0.00383,1.626187 0.00107,0.690602 0.0014,1.381186 -0.00294,2.071783 0.00366,0.445029 0.00174,0.890079 -9.313e-4,1.335108 0,0 3.9927311,0 3.9927311,0 v 0 c -0.00267,-0.445029 -0.00459,-0.890079 -9.261e-4,-1.335108 -0.00434,-0.690597 -0.00401,-1.381181 -0.00294,-2.071783 3.705e-4,-0.54207 0.00362,-1.084151 0.00379,-1.626206 -0.00342,-0.547957 -0.00233,-1.095904 -0.00312,-1.643854 -0.00399,-0.839403 -0.00266,-1.678799 0.00138,-2.518201 -0.00196,-0.768656 5.027e-4,-1.5373 0.00895,-2.305917 C 5.7784946,35.445237 5.7913216,34.91475 5.7275425,34.389374 5.6297178,33.595656 5.4485587,32.850182 5.0800295,32.132378 4.6682363,31.189731 4.3548897,30.412616 4.5029976,29.343334 4.4759906,28.14352 4.392029,26.946402 4.156739,25.766805 3.9048848,24.72112 3.5002604,23.698148 3.2534613,22.677601 c 0.00443,-0.522036 -0.0058,-1.044088 -0.00285,-1.566147 0.00305,-0.833907 -0.00459,-1.667846 -0.00185,-2.50176 -6.9e-5,-0.743433 0.00465,-1.486846 0.00463,-2.230276 0.00441,-0.530266 -0.00588,-1.060549 -0.00277,-1.590838 0.00301,-0.740952 -0.00351,-1.481924 0.00201,-2.222878 0.00434,-0.743495 -0.010729,-1.487016 -0.00632,-2.230536 C 3.22958,8.0804008 3.2201688,5.8254878 3.2372979,3.5706957 Z" />
    <path
       style="fill:#000000;stroke-width:0.264583"
       id="path2"
       d="m 45.843229,3.5706957 c 0.01953,2.6782225 0.0094,5.3565525 -0.0019,8.0347893 -0.0057,1.040369 -0.01357,2.080773 -0.01069,3.121162 -0.0027,0.622332 -0.0029,1.244625 -0.0024,1.866949 -7.94e-4,0.62328 -0.0013,1.246577 0.0019,1.869853 0.0016,1.002583 0.0049,2.005154 0.0016,3.007738 -0.0033,0.808234 -7.94e-4,1.616479 -0.0011,2.424719 -0.005,0.5922 -0.0013,1.18438 -0.0027,1.776584 0.0031,0.8268 0.0016,1.6536 0.0047,2.480404 0.0052,1.223724 0.0051,2.447467 -0.0016,3.671186 8.7e-5,0.8152 -0.0032,1.630312 0.0013,2.445502 -0.0019,1.046482 0.0019,2.092962 7.93e-4,3.139445 -0.0044,0.761862 -0.0016,1.523714 -0.0054,2.285577 0.0026,0.908968 0.0059,1.817941 0.0053,2.726914 -0.0024,0.816679 -0.0052,1.633377 -0.0021,2.450055 -0.0021,0.637395 -0.0026,1.274755 -0.0021,1.912144 -0.0039,0.514845 1.27e-4,1.02966 -7.94e-4,1.54451 0.0035,0.367216 0.0024,0.734447 0.0013,1.101667 0,0 3.986241,0 3.986241,0 v 0 c -7.93e-4,-0.36722 -0.0021,-0.734451 0.0013,-1.101667 -0.0011,-0.51485 0.003,-1.029665 -7.93e-4,-1.54451 2.64e-4,-0.637389 0,-1.274749 -0.0021,-1.912144 0.003,-0.816678 1.4e-4,-1.633376 -0.0021,-2.450055 -5.29e-4,-0.908973 0.0027,-1.817946 0.0053,-2.726914 -0.004,-0.761863 -0.0011,-1.523715 -0.0055,-2.285577 -0.0013,-1.046483 0.0026,-2.092963 7.94e-4,-3.139445 0.0047,-0.81519 0.0013,-1.630302 0.0013,-2.445502 -0.0067,-1.223719 -0.0067,-2.447462 -0.0016,-3.671186 0.0031,-0.826804 0.0016,-1.653604 0.0047,-2.480404 -0.0013,-0.592204 0.0024,-1.184384 -0.0027,-1.776584 -5.3e-4,-0.80824 0.0021,-1.616485 -0.0011,-2.424719 -0.0034,-1.002584 9.5e-5,-2.005155 0.0016,-3.007738 0.003,-0.623276 0.0026,-1.246573 0.0019,-1.869853 2.64e-4,-0.622324 1.51e-4,-1.244617 -0.0024,-1.866949 0.0029,-1.040389 -0.005,-2.080793 -0.01069,-3.121162 -0.01116,-2.6782368 -0.02127,-5.3565668 -0.0019,-8.0347893 z" />
  </g>
</svg>
