<?xml version="1.0" encoding="UTF-8" standalone="no"?>
<!-- Created with Inkscape (http://www.inkscape.org/) -->

<svg
   width="200"
   height="200"
   viewBox="0 0 52.916665 52.916666"
   version="1.1"
   id="svg1"
   inkscape:version="1.3.2 (091e20e, 2023-11-25)"
   sodipodi:docname="up_left_missing.svg"
   xmlns:inkscape="http://www.inkscape.org/namespaces/inkscape"
   xmlns:sodipodi="http://sodipodi.sourceforge.net/DTD/sodipodi-0.dtd"
   xmlns="http://www.w3.org/2000/svg"
   xmlns:svg="http://www.w3.org/2000/svg">
  <sodipodi:namedview
     id="namedview1"
     pagecolor="#ffffff"
     bordercolor="#000000"
     borderopacity="0.25"
     inkscape:showpageshadow="2"
     inkscape:pageopacity="0.0"
     inkscape:pagecheckerboard="0"
     inkscape:deskcolor="#d1d1d1"
     inkscape:document-units="mm"
     inkscape:zoom="0.2102413"
     inkscape:cx="397.16269"
     inkscape:cy="558.88162"
     inkscape:window-width="1728"
     inkscape:window-height="942"
     inkscape:window-x="0"
     inkscape:window-y="38"
     inkscape:window-maximized="0"
     inkscape:current-layer="layer1"
     showguides="true" />
  <defs
     id="defs1" />
  <g
     inkscape:label="Layer 1"
     inkscape:groupmode="layer"
     id="layer1">
    <path
       style="fill:#000000;stroke-width:0.264583"
       id="path1"
       d="m 44.800432,1.4138628 c 0.02053,2.3040849 -0.0013,4.608202 -0.0053,6.9122886 -0.0071,1.0433391 -0.0034,2.0866906 -0.0045,3.1300406 0.0019,0.824838 -0.0049,1.649699 -0.0021,2.474531 -0.0026,0.656365 2.14e-4,1.312718 -0.0013,1.969083 2.65e-4,0.566321 0.0011,1.132633 -0.0021,1.698957 0.0036,0.684154 0.0053,1.368312 0.0029,2.052493 0.0011,0.738108 2.64e-4,1.476209 1.64e-4,2.214316 0.0032,0.966414 0.0016,1.932841 0.0035,2.899261 -0.0026,0.86393 -0.0043,1.727835 -0.0013,2.591766 0.0071,1.361374 0.0049,2.722774 0.0021,4.084158 -0.006,0.714809 -0.0036,1.429618 -0.0056,2.144435 0.0056,1.009936 0.0052,2.019895 0.004,3.029842 -0.0052,0.664757 -0.0024,1.329504 -0.004,1.994267 -0.0043,0.434523 -1.8e-4,0.869019 -7.94e-4,1.303549 0.0013,0.530466 0.0019,1.060921 -0.0011,1.59139 0.0021,0.482727 -5.29e-4,0.965493 0.0024,1.448228 -0.0013,0.556102 -7.94e-4,1.112174 -1.93e-4,1.66827 -1.77e-4,0.322646 -0.0019,0.645289 -0.0044,0.967922 -0.01998,0.412372 0.164192,0.766575 -0.249767,0.929095 -0.401336,0.107942 -0.675748,0.113903 -0.982408,0.395076 -0.808768,0.604673 -1.645227,1.185331 -2.523625,1.707745 -0.553617,0.408419 -1.182547,0.499269 -1.848805,0.555898 -0.425389,0.01823 -0.851898,0.0041 -1.277557,-0.0031 -0.417152,-0.0091 -0.834466,-0.0054 -1.251725,-0.0072 -0.699241,0.0013 -1.398484,0.0024 -2.097728,0.0013 -0.792667,-7.94e-4 -1.585333,0.0021 -2.378003,7.94e-4 0.05458,0.236635 -0.919914,-0.244928 -0.870974,-0.218133 6.884077,3.768992 1.017201,0.295658 -1.229233,-0.602155 -1.150686,-0.332457 -2.347473,-0.382053 -3.536214,-0.425985 -1.113019,0.140036 -1.889615,-0.192373 -2.860742,-0.656701 -0.790693,-0.418645 -1.694779,-0.521102 -2.573759,-0.587351 -0.880164,-0.03669 -1.760972,-0.03698 -2.641667,-0.0345 -0.732698,0.0047 -1.465414,0.0038 -2.198118,0.0066 -0.463221,0.0011 -0.926444,-1.09e-4 -1.38966,-0.0021 -0.351825,0.0019 -0.703668,0.0016 -1.055504,5.29e-4 -0.532817,5.29e-4 -1.065645,0.0024 -1.598469,0.0026 -0.760767,-0.0021 -1.52153,0.0011 -2.2822981,0.0011 -0.7188912,-0.0021 -1.4377765,-2.38e-4 -2.1566682,-0.0024 -0.7056866,-0.04114 -1.1281148,-0.07255 -1.5924509,0.502269 -0.5072004,0.408419 -1.0331201,0.614355 -1.6649565,0.704247 -0.5309417,0.07566 -1.0671672,0.06339 -1.6017509,0.06126 -0.7579732,0.454642 -1.5178245,0.818653 -2.36403601,1.074571 -0.3700456,0.100645 -0.19640809,0.05609 -0.52043901,0.13548 0,0 3.28788992,2.261505 3.28788992,2.261505 v 0 c 0.327846,-0.09269 0.1521251,-0.04134 0.5267228,-0.155562 0.7999975,-0.26779 1.5108938,-0.696576 2.2973638,-0.972071 0.5490339,-0.0044 1.0990069,-0.01233 1.6399324,-0.11938 0.6888565,-0.146061 1.2891064,-0.461521 1.817111,-0.933228 0.3533521,-0.384201 0.9249427,-0.172762 1.4018117,-0.214394 0.716756,-0.0021 1.433506,-2.65e-4 2.150262,-0.0024 0.76179,-5.5e-5 1.523576,0.0033 2.285365,0.0011 0.535207,2.22e-4 1.070418,0.0019 1.60562,0.0026 0.352466,-0.0011 0.704938,-0.0011 1.057394,5.29e-4 0.460394,-0.0024 0.920792,-0.0043 1.381194,-0.0047 0.732416,1.56e-4 1.464827,-0.0064 2.197243,-0.0073 0.873079,-0.0011 1.747483,-0.0013 2.618659,0.06341 0.865222,0.09246 1.714756,0.277807 2.488275,0.694486 0.972651,0.438846 1.876867,0.605491 2.952533,0.530014 1.166823,0.05434 2.349566,0.125645 3.453979,0.541477 0.147283,0.06504 0.579009,0.27944 0.441844,0.195131 -0.978308,-0.601322 -3.982236,-2.287627 -2.968506,-1.748155 2.087491,1.110887 2.799704,2.310127 4.724929,2.248805 0.793298,-0.0013 1.58659,0.0013 2.379885,5.29e-4 0.700566,-0.0011 1.40114,-1.59e-4 2.101699,0.003 0.416584,5.29e-4 0.833072,0.0044 1.249606,0.01021 0.435184,0.0031 0.873048,0.02016 1.30552,-0.03837 0.70004,-0.09909 1.354982,-0.279836 1.935488,-0.704069 0.879078,-0.538568 1.72385,-1.129287 2.553502,-1.734614 0.3087,-0.142753 0.661032,-0.16981 0.956135,-0.352348 0.516255,-0.358156 0.494329,-0.707803 0.466897,-1.290566 -0.0026,-0.324125 -0.0042,-0.648259 -0.0044,-0.972397 5.29e-4,-0.556159 0.0013,-1.1123 -1.93e-4,-1.668468 0.0029,-0.481967 1.93e-4,-0.963969 0.0024,-1.445932 -0.0028,-0.530812 -0.0024,-1.061614 -0.0011,-1.592424 -5.29e-4,-0.434792 0.0035,-0.86955 -7.94e-4,-1.304335 -0.0016,-0.666125 0.0011,-1.33224 -0.004,-1.998363 -0.0013,-1.008597 -0.0016,-2.017207 0.004,-3.025794 -0.0019,-0.716713 2.65e-4,-1.433417 -0.0056,-2.150123 -0.0028,-1.360657 -0.005,-2.721332 0.0021,-4.081981 0.003,-0.864359 0.0013,-1.728697 -0.0013,-2.593057 0.0019,-0.96524 2.65e-4,-1.930489 0.0035,-2.895723 -1.24e-4,-0.738052 -0.0011,-1.476098 1.64e-4,-2.214151 -0.0024,-0.683206 -7.94e-4,-1.36639 0.0029,-2.049569 -0.003,-0.567027 -0.0024,-1.134043 -0.0021,-1.701068 -0.0016,-0.656821 0.0013,-1.313629 -0.0013,-1.97045 0.0028,-0.82556 -0.004,-1.65115 -0.0021,-2.476716 -0.0011,-1.04488 0.0026,-2.089763 -0.0045,-3.134634 -0.004,-2.3058981 -0.02585,-4.6118272 -0.0053,-6.9177234 z" />
  </g>
</svg>
