<?xml version="1.0" encoding="UTF-8" standalone="no"?>
<!-- Created with Inkscape (http://www.inkscape.org/) -->

<svg
   width="200"
   height="200"
   viewBox="0 0 52.916667 52.916667"
   version="1.1"
   id="svg1"
   inkscape:version="1.3.2 (091e20e, 2023-11-25)"
   sodipodi:docname="up_missing.svg"
   xmlns:inkscape="http://www.inkscape.org/namespaces/inkscape"
   xmlns:sodipodi="http://sodipodi.sourceforge.net/DTD/sodipodi-0.dtd"
   xmlns="http://www.w3.org/2000/svg"
   xmlns:svg="http://www.w3.org/2000/svg">
  <sodipodi:namedview
     id="namedview1"
     pagecolor="#ffffff"
     bordercolor="#000000"
     borderopacity="0.25"
     inkscape:showpageshadow="2"
     inkscape:pageopacity="0.0"
     inkscape:pagecheckerboard="0"
     inkscape:deskcolor="#d1d1d1"
     inkscape:document-units="mm"
     inkscape:zoom="0.2102413"
     inkscape:cx="397.16269"
     inkscape:cy="558.88162"
     inkscape:window-width="1728"
     inkscape:window-height="942"
     inkscape:window-x="0"
     inkscape:window-y="38"
     inkscape:window-maximized="0"
     inkscape:current-layer="layer1" />
  <defs
     id="defs1" />
  <g
     inkscape:label="Layer 1"
     inkscape:groupmode="layer"
     id="layer1">
    <path
       style="fill:#000000;stroke-width:0.264583"
       id="path1"
       d="m 0.75382156,2.6723374 c 0.0192344,2.7991424 0.005838,5.5983494 0.001212,8.3975136 -0.004813,1.424016 -0.007272,2.848035 -0.0106947,4.272053 -2.2958e-4,0.976658 9.3662e-4,1.953325 -0.002273,2.92998 -0.005471,0.503464 -0.001664,1.00691 -0.002551,1.510384 5.8737e-4,0.72056 0.004286,1.441111 0.00263,2.161681 0.003074,0.685502 7.1173e-4,1.371018 -0.004135,2.056506 0.002824,0.678659 0.002858,1.357321 0.005625,2.035985 0.004907,0.964807 -0.003162,1.929621 -8.8106e-4,2.894422 -0.002903,0.873511 0.001545,1.747014 0.001106,2.620528 -0.003396,0.733171 -7.1702e-4,1.466334 -0.004026,2.19951 -5.6356e-4,0.688621 0.00359,1.377239 0.002061,2.065875 0.13922906,0.891326 0.7174312,1.603259 1.0038837,2.441546 0.2024932,0.58348 0.2352406,1.196956 0.2547419,1.8083 -0.077419,0.590502 0.3627356,0.833575 0.7034231,1.246637 0.167835,0.20792 0.3251123,0.423932 0.4822788,0.639908 0.1558322,0.491988 0.5232776,0.814361 0.912368,1.134383 0.3294049,0.233672 0.6275549,0.495506 0.918973,0.775287 0.2185681,0.211257 0.4346393,0.425066 0.6502768,0.639305 1.5838421,1.536938 2.8886263,2.001406 4.6422879,1.984113 0.176655,-0.02801 0.314268,-0.0073 0.500058,-0.0079 -7.6338522,-4.073466 0.49809,0.923772 1.603656,1.248712 0.307114,0.105672 0.603657,0.04327 0.918018,0.03273 0.384505,-0.01669 0.7691,-0.02 1.153873,-0.02225 0.552394,-0.0019 1.104782,-0.003 1.657179,-0.0016 0.651247,-0.0011 1.302493,-7.93e-4 1.953741,-0.0011 0.357116,2.65e-4 0.71423,0.0013 1.071341,0.0034 0.370193,-0.0034 0.740412,-0.0019 1.110613,-5.29e-4 1.24642,-0.01405 2.473313,-0.07317 3.699687,0.166677 1.686901,0.384585 3.37051,0.78995 5.09436,0.959874 1.341514,0.121936 2.689878,0.127513 4.035822,0.136355 0.937106,5.3e-4 1.8742,-0.0045 2.811303,-0.0053 0.494425,0.0013 0.988841,-0.0011 1.483265,-7.93e-4 0.688454,-0.0016 1.376913,-0.0013 2.065369,-0.0013 0.616445,0.0016 1.232882,-2.65e-4 1.849327,0.0013 0.492569,-2.65e-4 0.985141,-7.94e-4 1.477714,7.93e-4 0.422648,-0.0011 0.845296,-0.0013 1.267949,1.35e-4 0.458208,-0.0027 0.916429,-0.0016 1.374637,5.29e-4 0.382249,-0.0016 0.764506,-0.0016 1.14676,-2.64e-4 0.365009,5.29e-4 0.730009,-0.0013 1.095026,-5.29e-4 0.415017,7.93e-4 0.830022,-0.0011 1.245044,-1.22e-4 0.590085,0.05888 0.618818,-0.724503 0.657228,-1.164646 0.03845,-0.981347 0.02183,-1.964107 0.02111,-2.94604 -0.0013,-0.81131 -0.0054,-1.622615 -0.006,-2.433928 -7.94e-4,-0.706186 -0.0013,-1.412357 0.0027,-2.118537 -0.0013,-0.496692 0.0013,-0.993426 -0.0016,-1.490121 0.0016,-0.624771 -0.0013,-1.249523 1.46e-4,-1.874292 5.29e-4,-0.760058 -0.0036,-1.520108 -0.0019,-2.280174 -0.0013,-0.69737 0.0039,-1.394769 7.94e-4,-2.092134 0.101176,-0.766837 -0.0904,-1.214985 -0.518692,-1.825369 -0.450321,-0.755456 -0.597271,-1.612381 -0.689761,-2.472581 -0.07391,-1.015471 -0.06222,-2.035069 -0.06502,-3.05257 0.0027,-1.140817 0.01122,-2.281589 0.01021,-3.422413 0.0013,-0.932468 0.0052,-1.864947 0.0029,-2.797414 -2.35e-4,-0.965116 -0.0011,-1.930231 -1.48e-4,-2.895347 0.0049,-0.628704 0.0019,-1.257397 0.0033,-1.886106 0.0024,-0.495586 -7.94e-4,-0.991151 0.0011,-1.486746 -0.0038,-0.515886 -0.0019,-1.031798 0.0016,-1.547681 5.3e-4,-0.335351 -0.0019,-0.670699 -0.0011,-1.006075 -0.0043,-0.5016943 -0.0024,-1.0034216 0.0011,-1.5051168 -0.0019,-0.3881594 -0.0021,-0.7763386 -2.64e-4,-1.1645146 7.94e-4,-0.3650313 -0.0019,-0.7300481 -7.94e-4,-1.095099 0.0037,-0.8126855 -0.04689,0.093724 0.06245,-0.1248151 0,0 -3.380645,-2.1234574 -3.380645,-2.1234574 v 0 c -0.274389,0.3160061 -0.239903,0.1539639 -0.238617,0.4359878 0.0011,0.3648022 -0.0016,0.7295697 -7.94e-4,1.0943524 0.0019,0.3880643 0.0016,0.7761313 -2.64e-4,1.1641785 0.0032,0.5020125 0.0052,1.0040567 0.0011,1.5060687 0.0011,0.3350572 -0.0016,0.6700858 -0.0011,1.0051182 0.0034,0.5163947 0.0053,1.0328183 0.0016,1.5492153 0.0019,0.495965 -0.0013,0.9919 0.0011,1.487855 0.0016,0.629846 -0.0016,1.259675 0.0034,1.889516 0.0011,0.965065 1.96e-4,1.930127 -8.5e-5,2.895191 -0.0024,0.932862 0.0013,1.865735 5.29e-4,2.7986 -0.0038,1.141928 -0.0021,2.283852 -0.0037,3.425784 -0.005,1.027684 -0.02066,2.056072 0.03439,3.082856 0.08816,0.913752 0.219414,1.809277 0.604229,2.65421 0.427207,0.625663 0.74713,0.782749 0.621112,1.606929 -0.003,0.697669 0.0021,1.395375 7.94e-4,2.09305 0.0019,0.759475 -0.0021,1.518938 -0.0019,2.278406 0.0013,0.624808 -0.0016,1.249603 1.13e-4,1.874411 -0.0029,0.496139 -2.48e-4,0.992318 -0.0016,1.488451 0.004,0.707491 0.0036,1.414971 0.004,2.122464 0.0013,0.81199 5.29e-4,1.624002 0.0076,2.435966 0.0068,0.972566 0.01429,1.945602 -0.01289,2.917904 -0.01998,0.421582 0.08949,0.718143 -0.347027,0.652531 -0.415134,7.94e-4 -0.830255,-0.0011 -1.245383,-1.22e-4 -0.365464,7.94e-4 -0.730914,-0.0011 -1.09637,-5.29e-4 -0.382567,0.0011 -0.765135,0.0011 -1.147694,-2.64e-4 -0.45783,0.0019 -0.915673,0.0031 -1.3735,5.29e-4 -0.422529,0.0013 -0.845052,0.0011 -1.267576,1.37e-4 -0.491739,0.0016 -0.983475,0.0013 -1.475213,7.94e-4 -0.615268,0.0016 -1.230525,-2.49e-4 -1.845789,0.0013 -0.689676,-3.4e-5 -1.379353,2.14e-4 -2.069029,-0.0011 -0.493236,7.94e-4 -0.986462,-7.94e-4 -1.479682,0.0046 -0.934799,0.0048 -1.86963,0.0087 -2.804438,0.0059 -1.3355,-0.007 -2.673381,-0.02498 -4.00294,-0.163531 -1.713297,-0.209871 -3.388638,-0.622986 -5.077338,-0.972831 -1.251594,-0.165621 -2.503228,-0.131617 -3.764378,-0.134392 -0.370759,0.0013 -0.741536,0.0028 -1.112287,-5.3e-4 -0.354012,0.0019 -0.708029,0.0031 -1.062047,0.0033 -0.652371,-1.56e-4 -1.304742,-2.07e-4 -1.957112,-0.0013 -0.552781,0.0016 -1.105569,-5.29e-4 -1.658334,0.0043 -0.386882,0.0033 -0.773414,0.01471 -1.160082,0.02772 -0.3018831,0.0064 -0.5505939,-0.02106 -0.8334768,-0.139163 -1.4195272,-0.504696 -0.085141,-0.05162 2.7210518,1.69328 0.08293,0.05157 -0.199541,-0.03614 -0.27686,-0.0958 -0.401164,-0.309499 0.156585,-0.186995 -0.362536,-0.515195 -1.233248,-0.779687 -2.5099779,-1.488373 -3.7649667,-2.232562 -0.2058803,7.94e-4 -0.3217894,0.0241 -0.5027486,0.0075 -2.1821301,0.0094 1.6527357,0.879708 2.28414,1.891776 C 9.1437453,45.814453 8.9239147,45.598619 8.7037318,45.38315 8.4122896,45.098528 8.1608844,44.770971 7.8064874,44.567305 7.4532555,44.314768 6.7993666,43.986161 6.8484024,43.557573 6.697874,43.326174 6.5404885,43.099339 6.3706805,42.881309 6.008259,42.409707 5.5981776,42.257355 5.5606851,41.867777 5.5431379,41.226591 5.5405318,40.576891 5.3488012,39.958721 5.1072768,39.118315 4.6450222,38.423519 4.2918847,37.625996 c -0.00153,-0.687933 0.00262,-1.375852 0.00206,-2.063771 -0.0033,-0.734544 -6.35e-4,-1.469073 -0.00402,-2.203614 -4.498e-4,-0.873139 0.00401,-1.746266 0.00111,-2.619402 0.00228,-0.965099 -0.00579,-1.930212 -8.731e-4,-2.895319 0.00277,-0.676751 0.0028,-1.353505 0.00562,-2.030252 -0.00482,-0.686893 -0.00722,-1.373814 -0.00414,-2.06072 -0.00164,-0.719677 0.00204,-1.439334 0.00262,-2.159 -8.732e-4,-0.50434 0.00291,-1.008652 -0.00254,-1.512983 -0.0032,-0.977427 -0.00204,-1.954867 -0.00228,-2.932297 -0.00342,-1.427651 -0.00589,-2.855303 -0.010694,-4.282952 -0.00462,-2.798752 -0.018037,-5.597547 0.00122,-8.3962775 z" />
  </g>
</svg>
