<?xml version="1.0" encoding="UTF-8" standalone="no"?>
<!-- Created with Inkscape (http://www.inkscape.org/) -->

<svg
   width="200"
   height="200"
   viewBox="0 0 52.916665 52.916666"
   version="1.1"
   id="svg1"
   inkscape:version="1.3.2 (091e20e, 2023-11-25)"
   sodipodi:docname="up_only.svg"
   xmlns:inkscape="http://www.inkscape.org/namespaces/inkscape"
   xmlns:sodipodi="http://sodipodi.sourceforge.net/DTD/sodipodi-0.dtd"
   xmlns="http://www.w3.org/2000/svg"
   xmlns:svg="http://www.w3.org/2000/svg">
  <sodipodi:namedview
     id="namedview1"
     pagecolor="#ffffff"
     bordercolor="#000000"
     borderopacity="0.25"
     inkscape:showpageshadow="2"
     inkscape:pageopacity="0.0"
     inkscape:pagecheckerboard="0"
     inkscape:deskcolor="#d1d1d1"
     inkscape:document-units="mm"
     inkscape:zoom="0.2102413"
     inkscape:cx="397.16269"
     inkscape:cy="561.25984"
     inkscape:window-width="1312"
     inkscape:window-height="449"
     inkscape:window-x="0"
     inkscape:window-y="38"
     inkscape:window-maximized="0"
     inkscape:current-layer="layer1" />
  <defs
     id="defs1" />
  <g
     inkscape:label="Layer 1"
     inkscape:groupmode="layer"
     id="layer1">
    <path
       style="fill:#000000;stroke-width:0.264583"
       id="path1"
       d="m 2.7057733,1.5678148 c 1.7311394,-0.00271 3.4622827,-7.647e-4 5.1934226,5.265e-4 3.5780401,0.362562 -4.7334997,-2.15361984 -2.2209519,0.6226274 0.3065685,0.2515827 0.6672223,0.4141972 1.0308513,0.5630069 1.6021375,0.3968875 3.3256437,0.090783 4.9855207,0.078538 1.353823,-0.00584 3.242118,-0.1226489 -3.0892546,0.1543788 0.4533495,0.5549898 0.9696556,0.8582655 1.6610396,1.0154978 2.083937,0.203426 4.226116,0.095614 6.300975,0.094725 1.484155,0.1448265 4.390591,-0.5512922 -1.870002,0.094137 -0.3649,0.037619 0.692824,0.2427015 1.031152,0.3844798 1.048836,0.4692139 2.175831,0.6219894 3.309346,0.7130177 2.201185,0.1256366 4.414953,0.063926 6.616067,0.06353 1.06362,-0.00396 2.127245,-0.00605 3.190869,-0.00651 0.916107,-0.00169 1.832216,-7.408e-4 2.748323,-0.00135 1.465358,3.704e-4 1.948884,4.234e-4 -3.067489,4.498e-4 -0.155433,3e-7 0.310867,-2.91e-4 0.466299,-3.175e-4 0.425513,-9.95e-5 0.851021,3.969e-4 1.276535,7.97e-5 0.839441,-1.43e-5 1.678882,6.879e-4 2.51832,4.15e-5 2.097934,7.673e-4 4.195868,-0.00172 6.293802,7.144e-4 0.809805,-7.409e-4 1.61961,-0.00103 2.429415,-1.503e-4 0.837906,-6.615e-4 1.67581,-9.525e-4 2.513716,-2.04e-5 -6.664266,-0.00921 -3.552954,0.00241 -2.021387,1.773e-4 2.010119,-0.087073 4.222504,0.4777351 6.059635,-0.4478761 0.715944,-0.4489323 1.524749,-0.6212681 2.34487,-0.7681428 0.400465,-0.087954 0.807024,-0.054084 1.213194,-0.05155 -6.887969,-0.022976 -3.726847,0.00467 -2.151179,0.00759 0.858189,-0.068711 1.226431,0.4107815 1.13179,-0.6224362 7.559537,-6.35e-5 1.476203,0.00354 -0.25825,0.00391 -1.971122,6.879e-4 -3.942244,4.65e-5 -5.913365,5.027e-4 -3.145761,6.085e-4 -6.291522,-0.00151 -9.437283,-7.144e-4 -1.531533,2.911e-4 -3.063068,-0.00101 -4.594601,-9.525e-4 -0.197903,-1.204e-4 -0.395808,-2.41e-4 -0.593711,-3.704e-4 0.494276,-0.00124 -1.97711,-4.498e-4 -1.482834,-5.292e-4 3.430056,-6.35e-4 4.719243,0.00122 3.217415,-7.673e-4 -0.797448,3.705e-4 -1.594895,1.593e-4 -2.392344,8.996e-4 -2.813138,-0.03695 -5.617042,-0.041946 -8.361802,0.617302 -1.574467,0.3443007 -3.17973,0.5211834 -4.78691,0.6127118 -1.107411,0.4057401 -2.220763,0.7867859 -3.351729,1.1250676 -0.715994,0.1364967 -1.440686,0.1649537 -2.16685,0.1713587 -3.2750137,-0.0045 6.070415,0.010478 1.603858,-0.00536 C 11.147426,6.0914308 10.414001,5.8993415 9.5823211,5.5012145 8.8696942,5.1607886 8.1723853,4.8855148 7.5846651,4.3458714 7.4234915,4.1810262 6.5768288,3.356743 6.6852966,3.9547074 9.7416045,4.3819423 2.0948775,4.0671561 4.4256663,4.0779673 c 0.8356417,0.00317 1.6712785,0.00637 2.5069244,0.00774 2.1051933,-0.041238 4.2934733,0.2766922 6.3067663,-0.4229153 0.996495,-0.4102841 2.046156,-0.6220846 3.106235,-0.7859995 0.73204,-0.08317 1.474723,-0.059435 2.211024,-0.057967 -7.058483,-0.00583 -2.410981,0.003 -0.781804,0.00624 1.059251,0.00146 2.118503,0.00164 3.177755,0.00282 1.990211,1.759e-4 3.980432,0.00274 5.970642,3.704e-4 0.939688,-4.498e-4 1.879377,-0.00124 2.819066,-5.557e-4 4.733356,0.1648492 -3.924381,-0.7916134 -1.529937,0.2672758 0.703971,0.419668 1.478378,0.7020345 2.275932,0.8789143 0.711738,0.1155465 1.434492,0.1160423 2.153502,0.1216393 1.457905,-0.00101 2.915812,-0.00161 4.373716,-0.00303 0.323811,-3.175e-4 0.647634,-0.00259 0.971442,-0.00372 0.06103,-2.149e-4 0.24412,-0.00153 0.183097,-6.35e-4 -1.224248,0.018105 -2.448518,0.034826 -3.672774,0.052239 0.582073,0.4547074 1.220264,0.7662947 1.916816,1.0035117 0.656828,0.177583 1.341411,0.1971428 2.017665,0.2078548 2.198428,0.012388 4.396864,-3e-7 6.595285,-0.00462 0.85376,-0.0018 1.707523,-0.00254 2.561285,-0.00209 4.131083,-0.00151 -4.521364,0.00364 -1.832334,2.646e-4 1.4343,-0.7980608 -1.130261,-0.6209842 -1.200333,-0.6208281 -2.381814,0.00151 -4.763632,0.00369 -7.145446,0.0031 6.881318,-3.44e-4 -2.746915,-6.086e-4 -3.814802,-6.35e-4 -1.85692,-0.0018 -3.71384,-0.00114 -5.570757,-0.00212 -2.422612,-0.00198 -4.845225,-5.292e-4 -7.267836,-0.00153 -1.137612,2.646e-4 -2.275224,8.996e-4 -3.412836,5.292e-4 2.120456,0.0013 -4.250122,-6.879e-4 -2.288335,-1.799e-4 1.087815,2.91e-4 2.175629,3.439e-4 3.263444,5.027e-4 0.208873,3.04e-5 -0.417747,-7.67e-5 -0.626621,-1.151e-4 -1.314239,1.048e-4 -2.628478,5.292e-4 -3.942717,-4.18e-5 -1.267279,-6.11e-5 -2.534559,4.498e-4 -3.8018389,-6.91e-5 -2.1949542,5.557e-4 -4.3899126,0.00235 -6.5848641,-0.00185 -0.7108405,0.9503807 1.16679,0.6219963 1.7369379,0.6220773 2.5568206,-0.00101 5.1136391,3.175e-4 7.6704611,2.503e-4 1.056162,-0.09882 1.594471,0.483994 1.52077,-0.6230866 -1.515242,0.00574 -3.030503,0.00355 -4.5457532,0.00373 -0.8052972,-0.00196 -1.61125,0.00135 -2.4162496,-0.00389 0.08347,0.2081596 0.077529,0.481615 0.2504094,0.6244788 0.137577,0.1136902 4.0648364,-0.00444 4.4063004,-0.00474 2.085285,-8.202e-4 4.170573,2.214e-4 6.255856,0.00288 0.326441,0.5129956 2.623373,-0.6277004 0.850499,-0.6212081 -1.669475,0.00375 -3.338955,0.00265 -5.008433,0.0031 -1.282693,-0.00101 -2.565385,-8.467e-4 -3.848077,-0.00275 -1.2503621,0.3029897 0.74644,-0.1095457 1.090588,-0.1866691 2.241192,-0.2838418 4.464535,-0.4057277 6.686928,-0.831279 2.095454,-0.4119676 4.216846,-0.6568421 6.344514,-0.8197675 0.875268,-0.051514 1.752094,-0.069752 2.628612,-0.065628 C 23.654294,2.005355 20.314356,2.2068974 16.929827,2.2094674 c -2.108517,8.916e-4 -4.217038,2.51e-4 -6.325554,-0.0024 -3.075484,-0.00463 5.055201,0.00219 1.910556,-0.00186 C 10.941334,2.1687944 9.5358952,2.54316 7.8819334,2.7796767 8.460443,4.2085859 10.774774,3.9454491 12.054524,4.0182145 c 3.833831,0.1114798 7.67116,0.076888 11.506029,0.075939 1.659666,-0.00266 3.31933,-0.00627 4.978998,-0.0071 0.626874,1.823e-4 1.253746,-6.35e-4 1.880618,4.29e-5 1.721856,-0.010798 -6.151765,0.00492 -2.377469,-3.704e-4 0.436886,-2.646e-4 0.873771,2.646e-4 1.310654,0.00108 1.719159,-0.00228 3.438334,-0.00414 5.157496,-2.646e-4 0.413737,-0.00101 0.827479,-3.969e-4 1.241216,1.924e-4 1.420042,-0.00153 3.838196,5.027e-4 -2.544998,-0.00146 0.732875,-0.077462 1.209995,0.477192 1.807853,0.8150254 0.238972,0.1318549 0.48473,0.2506959 0.729652,0.3708517 1.773274,0.3560887 3.660867,0.083516 5.488159,0.075931 0.368176,-0.00156 0.736357,-0.00193 1.104538,-0.00238 2.651977,6.085e-4 -4.61703,-0.00621 -2.744761,5.821e-4 0.531709,-0.066946 0.754173,0.1027186 1.017601,0.5468374 0.164536,0.4697571 0.516135,0.58802 0.969928,0.6692701 0,0 3.94685,-0.5734426 3.94685,-0.5734426 v 0 c -0.398187,-0.03109 -0.812342,0.1029719 -0.934844,-0.298192 -0.240284,-0.4575786 -0.466405,-1.0464384 -1.054,-0.969324 -1.713103,0.00555 -3.426222,-6.88e-4 -5.139333,8.202e-4 -0.365902,1.857e-4 -0.731795,0.0034 -1.097698,0.005 -2.792584,0.014414 5.012095,-0.1902576 2.412058,0.063884 C 39.458966,4.703619 39.21139,4.598391 38.972389,4.4735235 38.336016,4.1476513 37.803714,3.5382098 37.132476,3.464575 c -1.774729,-4.234e-4 -3.549491,-3.47e-5 -5.324228,-0.00146 -0.412928,6.086e-4 -0.825858,0.00119 -1.238785,1.929e-4 -2.181563,0.00506 5.066684,0.00151 2.728786,-2.646e-4 -0.441325,7.938e-4 -0.88265,0.00132 -1.323975,0.00103 -1.830406,-0.00275 -3.660834,0.00453 -5.491232,-4.498e-4 -0.62103,8.996e-4 -1.24206,5.027e-4 -1.863085,0.00337 -1.64733,0.00502 -3.294662,0.00999 -4.941997,0.012679 7.249106,0.00335 -2.559478,0.0196 -3.732359,-0.057208 -1.288934,-0.059437 -2.932329,0.066926 -4.082809,-0.5660708 -6.8873514,-0.048377 -4.7612661,-0.023185 -3.2850462,-0.027608 1.9800972,-0.00233 3.9602002,0.00288 5.9402942,-0.00185 2.09121,-0.00307 4.182423,-0.00476 6.273635,-0.00602 1.775326,-8.203e-4 10.920934,0.2831973 2.245514,-0.6256936 -0.864477,0.017706 -1.729817,0.033698 -2.59235,0.102867 C 18.325822,2.4824704 16.214991,2.7514136 14.126887,3.1627076 11.893604,3.568901 9.6391655,3.6208008 7.4062846,4.0155533 6.9956711,4.1332109 4.5410784,5.1457689 6.3078917,5.3449896 c 1.2942517,-0.00188 2.5885045,-0.00175 3.8827573,-0.00275 1.656414,4.498e-4 3.312831,-6.614e-4 4.969242,0.0031 1.741689,0.00669 -0.508199,-1.1310377 -0.830068,-0.6212078 -2.07316,0.00269 -4.146323,0.00369 -6.2194835,0.00288 C 7.7428526,4.7267028 3.8099171,4.5904543 3.6441274,4.7222763 3.4671246,4.8630132 3.467419,5.1385955 3.3790649,5.3467549 c 0.8217146,-0.00495 1.6436242,-0.00214 2.465398,-0.00389 1.4995552,1.746e-4 2.9991219,-0.00206 4.4986681,0.00373 0.08587,-1.1111886 -0.4790075,-0.5223181 -1.4926654,-0.6230866 7.1482684,-2.91e-4 1.8186614,0.00148 0.1663001,2.503e-4 -0.5650169,8.02e-5 -2.4092683,-0.3263238 -1.7152572,0.6220773 4.6731505,-0.00922 -4.3292757,4.497e-4 -1.2686249,-0.00185 1.2675698,-5.292e-4 2.5351398,-9.8e-6 3.8027093,-6.88e-5 1.3144151,-5.821e-4 2.6288311,-1.49e-4 3.9432461,-4.18e-5 2.493777,-4.498e-4 4.987554,7.144e-4 7.48133,2.058e-4 1.139831,-3.704e-4 2.279662,2.53e-4 3.419494,5.292e-4 5.175129,-0.00214 -5.431259,7.937e-4 -0.558483,-0.00153 1.865877,-9.79e-4 3.731753,-3.175e-4 5.597629,-0.00212 3.853357,-5.08e-5 7.706717,-5.291e-4 11.560075,-6.35e-4 2.39487,-5.82e-4 4.789741,0.00161 7.184612,0.0031 0.804338,0.00175 1.396687,0.3210809 1.476184,-0.621978 0.007,-0.083539 -0.366945,0.1850718 -0.251502,0.00108 -2.009458,-0.0027 -4.01892,0.00122 -6.02838,4.233e-4 -0.85344,0.00101 -1.706878,0.00111 -2.560318,0.0033 -0.44518,0.00167 -0.890357,0.00291 -1.33554,0.00416 -0.134908,3.704e-4 -0.539633,0.00122 -0.404722,0.0013 2.578692,0.00167 4.752787,-5.027e-4 3.002946,0.00111 -0.667168,-0.00127 -1.333941,-0.010422 -1.997355,-0.092143 C 39.665907,4.4402359 38.981694,4.242176 38.455443,3.71363 37.046863,3.631122 35.638496,3.5448883 34.229704,3.4661054 c -0.37905,-0.021198 -1.518545,0.00615 -1.138905,0.00647 1.161611,9.789e-4 2.323225,4.497e-4 3.484838,6.879e-4 -0.716775,0.00273 -1.435529,0.010626 -2.149737,-0.059005 C 33.637601,3.3377123 32.835522,3.0630581 32.160051,2.6556866 30.285327,1.6162734 27.90979,2.3224913 25.818923,2.2063031 c -0.941938,7.065e-4 -1.883877,-1.079e-4 -2.825815,-5e-4 -3.798307,-0.00425 5.161924,0.00155 1.885369,3.519e-4 -1.062083,8.308e-4 -2.124168,3.783e-4 -3.18625,-8.97e-4 C 19.337804,2.202388 16.983414,2.187155 14.628969,2.197338 13.887431,2.200958 13.13863,2.183681 12.406506,2.3200441 11.348716,2.5125692 10.31124,2.7772133 9.3086236,3.1716457 6.2676671,4.1829136 15.120066,3.3198939 10.860597,3.4640743 10.024215,3.4634129 9.1878316,3.461746 8.3514572,3.4580498 6.5097146,3.4496228 4.2885058,2.8890951 2.6991159,3.6631174 c -0.1163977,0.7450511 0.5282636,0.5365597 0.920115,1.002148 0.6060842,0.6115111 1.221813,0.9687864 2.0168639,1.2788374 0.8588534,0.4253679 1.5240945,0.8184382 2.5203737,0.6623883 2.0842715,0.0064 4.1687655,0.025164 6.2529025,-2.421e-4 0.733815,-0.021786 1.469153,-0.084386 2.179621,-0.2813365 1.107842,-0.3482284 2.191309,-0.7896727 3.325848,-1.0351479 1.606065,-0.115 3.208341,-0.3190279 4.778854,-0.6812758 1.977258,-0.4632407 3.677598,-0.2871132 -1.238039,-0.523443 -1.633076,-0.078514 3.560695,0.062199 1.769043,9.525e-4 0.793677,7.409e-4 1.587354,5.292e-4 2.38103,8.996e-4 2.234197,-0.0029 4.468394,6.615e-4 6.702591,-0.00167 1.527551,5.88e-5 3.055102,-0.00124 4.582652,-9.525e-4 0.551842,1.376e-4 1.143207,3.705e-4 1.695786,1.657e-4 0.277183,-1.053e-4 1.108729,-5.027e-4 0.831546,-5.821e-4 -6.115063,-0.0019 -2.165892,4.498e-4 -0.879351,-3.175e-4 1.968948,4.498e-4 3.937895,-1.916e-4 5.906842,5.292e-4 2.700787,6.085e-4 5.401569,0.00477 8.102362,0.00403 0.0867,-1.0348489 -0.287798,-0.5530472 -1.147482,-0.6245825 -1.905831,-0.00422 -3.811612,-0.02078 -5.71749,-0.00825 -0.41184,0.00452 -0.819523,0.02527 -1.220465,0.1290939 -0.823944,0.1825294 -1.614884,0.4395512 -2.347264,0.8693314 -2.386063,1.1084491 6.107086,0.1071454 1.819981,0.2687868 -1.947515,-0.00287 -3.895055,0.013838 -5.842563,1.772e-4 -0.837991,9.525e-4 -1.675982,6.086e-4 -2.513973,-2.03e-5 -0.810437,8.995e-4 -1.620875,5.82e-4 -2.431309,-1.498e-4 -1.489731,0.00175 -0.297746,2.262e-4 3.255423,6.35e-4 0.144819,1.64e-5 -0.28964,4.95e-5 -0.434457,7.44e-5 -0.419216,-3.44e-4 -0.838427,-1.929e-4 -1.257641,-1.4e-6 -0.839512,-6.614e-4 -1.679025,5.16e-5 -2.518537,-5e-7 -2.173719,-0.00169 -4.347443,0.00185 -6.521162,1.349e-4 -0.918088,-5.027e-4 -1.836177,4.763e-4 -2.754265,0.00108 -1.061723,0.00323 -2.123448,0.00552 -3.185174,0.00736 6.842452,0.00151 2.80844,0.034692 1.227325,-0.035983 -1.117659,-0.06663 -2.23708,-0.1577141 -3.288367,-0.5776373 -2.19745,-1.0153017 -4.660559,-0.6054008 -7.027837,-0.6414328 6.778555,0.00119 3.131508,0.043363 1.560947,-0.03861 C 13.514121,3.3924634 12.982046,3.224943 12.563683,2.6495385 10.890689,2.4766331 9.3745012,2.1709842 7.7570535,2.2119665 5.9066649,2.2267658 12.901885,2.1206008 10.671616,2.2465401 10.313371,2.1563341 9.9687479,2.0230205 9.6452744,1.8420856 9.4827271,1.7539682 9.2095631,1.2083733 9.09992,1.1954292 7.3739514,0.99166647 5.6981076,0.93675199 3.9863492,0.94860754 c -1.7289225,0.001301 -3.45784834,0.00323 -5.1867703,5.2682e-4 z" />
  </g>
</svg>
