<?xml version="1.0" encoding="UTF-8" standalone="no"?>
<!-- Created with Inkscape (http://www.inkscape.org/) -->

<svg
   width="200"
   height="200"
   viewBox="0 0 52.916665 52.916666"
   version="1.1"
   id="svg1"
   inkscape:version="1.3.2 (091e20e, 2023-11-25)"
   sodipodi:docname="up_right_missing.svg"
   xmlns:inkscape="http://www.inkscape.org/namespaces/inkscape"
   xmlns:sodipodi="http://sodipodi.sourceforge.net/DTD/sodipodi-0.dtd"
   xmlns="http://www.w3.org/2000/svg"
   xmlns:svg="http://www.w3.org/2000/svg">
  <sodipodi:namedview
     id="namedview1"
     pagecolor="#ffffff"
     bordercolor="#000000"
     borderopacity="0.25"
     inkscape:showpageshadow="2"
     inkscape:pageopacity="0.0"
     inkscape:pagecheckerboard="0"
     inkscape:deskcolor="#d1d1d1"
     inkscape:document-units="mm"
     inkscape:zoom="0.2102413"
     inkscape:cx="397.16269"
     inkscape:cy="558.88162"
     inkscape:window-width="1728"
     inkscape:window-height="942"
     inkscape:window-x="0"
     inkscape:window-y="38"
     inkscape:window-maximized="0"
     inkscape:current-layer="layer1" />
  <defs
     id="defs1" />
  <g
     inkscape:label="Layer 1"
     inkscape:groupmode="layer"
     id="layer1">
    <circle
       id="path1"
       style="fill:#000000;stroke:#000000;stroke-width:0.264583"
       cx="268.05508"
       cy="-115.77966"
       r="0.16762759" />
    <path
       style="fill:#000000;stroke-width:0.264583"
       id="path2"
       d="m -0.72032976,2.3122212 c 0.016183,2.5074727 0.0104513,5.0150609 -0.00523,7.5225235 -0.049111,1.1798213 -0.0755866,2.2546843 0.35517264,3.3588093 0.21477713,0.669313 0.63362448,1.270034 0.81206413,1.949677 0.0627857,1.435642 0.0834906,2.813363 0.45898622,4.208954 0.29579277,1.119426 0.64703297,2.225305 0.80419967,3.374593 0.097941,1.073058 0.086136,2.152239 0.089229,3.228684 -2.549e-4,0.535547 -0.00581,1.071069 -0.014725,1.606533 0.00378,0.391332 9.843e-4,0.78269 -0.00159,1.174022 0.00314,0.535326 0.00379,1.070674 0.00431,1.60601 0.00406,0.932762 0.0014,1.86553 0.00434,2.7983 -0.00343,0.833953 -0.00125,1.667904 -0.00407,2.501857 -0.00554,0.468083 -0.00106,0.936136 -0.00187,1.404231 0.00285,0.580285 -0.00144,1.160601 0.00181,1.740885 -0.00184,0.569206 -0.00121,1.138377 -6.879e-4,1.707576 0.00153,0.975555 0.00603,1.951119 0.00586,2.926683 0.00234,1.18873 0.0029,2.377461 -0.00373,3.566178 -0.044146,0.60543 -0.015582,1.056704 0.3614638,1.557084 0.2834086,0.317822 0.6043636,0.592211 0.9817961,0.787336 1.8626844,0.220078 3.7494004,0.07622 5.6234103,0.06598 0.6123309,-0.0042 1.2246808,-0.0048 1.8370239,-0.0056 1.474264,-2.64e-4 4.453958,2.65e-4 -2.0990771,-7.93e-4 0.4873195,0.0013 0.9746385,5.29e-4 1.4619584,7.93e-4 0.2622937,1.38e-4 0.5245857,7.94e-4 0.7868797,1.8e-4 1.909091,-0.0021 3.818167,-0.0011 5.727252,-1.51e-4 3.29728,2.65e-4 -4.446056,-0.0029 -1.901116,-7.93e-4 0.787936,7.93e-4 1.575873,2.64e-4 2.363809,2.64e-4 0.963474,0.191511 1.828314,0.68022 2.767218,0.973511 0.769907,0.200443 1.564872,0.262826 2.357166,0.286334 1.95616,0.03122 3.912804,0.0089 5.869151,7.94e-4 0.515773,-0.0021 1.031557,-0.0013 1.547333,-0.0019 2.982267,0.0011 -5.754059,-0.0033 -1.815822,1.77e-4 0.447543,5.3e-4 0.895083,-3.4e-5 1.342625,2.44e-4 2.062044,7.4e-5 4.124085,-0.0016 6.186125,-2.65e-4 2.536463,0.0024 -4.948234,-0.0024 -2.369748,2.41e-4 0.511715,-1.9e-4 1.023432,2.65e-4 1.535147,-2.17e-4 2.118865,-2.65e-4 4.23773,-7.94e-4 6.356598,-5.29e-4 0.723892,7.94e-4 1.447784,7.94e-4 2.171679,1.48e-4 0.762548,2.65e-4 1.525096,-1.3e-5 2.287643,2.65e-4 -6.434793,-7.94e-4 -3.478749,-0.0016 -2.000271,5.29e-4 0.458743,-7.94e-4 0.917485,1.61e-4 1.376228,-5.29e-4 0.584033,2.06e-4 1.168069,-2.65e-4 1.752102,-1.06e-4 1.911617,0.0016 3.823237,-0.0021 5.734854,2.64e-4 0.408223,-8.7e-5 0.816446,-2.19e-4 1.224669,1.3e-4 -0.04856,-0.208259 -0.04967,-0.433697 -0.145685,-0.624779 -0.07082,-0.140936 -1.782069,0.0011 -1.98365,0.0011 -0.819353,0.0011 -1.638707,-0.0011 -2.458061,-5.29e-4 -0.421648,1.16e-4 -0.843296,-2.33e-4 -1.264944,-7.94e-4 -0.297677,1.7e-4 -0.595354,5.29e-4 -0.893032,2.65e-4 -0.691959,5.29e-4 -1.383919,7.94e-4 -2.075878,5.29e-4 -0.693709,0.0011 -1.38742,-7.94e-4 -2.081128,-1.22e-4 -0.960064,5.3e-4 -1.920126,5.3e-4 -2.880191,7.94e-4 -1.219996,0.165055 -2.246376,-0.268039 -3.353834,-0.687808 -0.826648,-0.265377 -1.681864,-0.442865 -2.544181,-0.540539 -2.011484,-0.110238 -4.027942,-0.04061 -6.041834,-0.03337 -1.00611,0.0028 -2.012224,0.0034 -3.018337,0.0031 -1.343699,5.29e-4 -2.890588,7.94e-4 2.851083,2.9e-5 0.14522,-1.8e-5 -0.290441,-2.54e-4 -0.43566,-2.64e-4 -0.501299,-6.9e-5 -1.002598,3.7e-5 -1.503896,2.41e-4 -0.987476,7.93e-4 -1.974951,-7.94e-4 -2.962426,-5.3e-4 -0.827917,0.126376 -1.369572,-0.243736 -2.047108,-0.651131 -0.681245,-0.350134 -1.430002,-0.509895 -2.186952,-0.577485 -1.988181,-0.09856 -3.98164,-0.04512 -5.971504,-0.03441 -0.725767,0.0034 -1.451543,0.0038 -2.177316,0.0046 1.478039,1.6e-5 -2.8075558,-6e-5 -1.6407126,3e-6 4.1926466,2.22e-4 4.6685306,5.29e-4 3.2006686,-2.25e-4 -0.812272,1.59e-4 -1.624544,5.29e-4 -2.4368155,3.2e-5 -0.6074468,-9e-5 -1.2148933,5.3e-5 -1.8223399,-5.29e-4 -1.9246249,7.94e-4 -3.8492501,5.29e-4 -5.7738746,5.29e-4 -0.69257655,-0.112392 -0.85118561,0.435255 -1.0202215,1.008351 0.17917647,0.745048 0.9018663,0.779941 1.5515285,0.842309 2.1417002,0.08873 4.2876261,0.04604 6.4305449,0.03736 0.8927708,-0.0038 1.7855491,-0.0049 2.6783271,-0.006 1.051741,-7.94e-4 2.103482,-7.94e-4 3.155223,-5.29e-4 -7.1075974,5.29e-4 -2.02873,0.05599 0.900688,-0.210735 0.556972,-0.05071 1.382119,-0.57689 1.940202,-0.767422 1.050904,-0.249491 2.133705,-0.261979 3.207642,-0.283244 -0.621469,-0.01183 2.486315,-0.0068 1.864733,-0.0066 -6.299067,0.0024 -3.470641,-1.99e-4 -2.069325,0.0035 1.190665,0.0024 2.381331,0.0049 3.571998,0.0054 2.138365,0.0021 4.27673,0.0011 6.415098,7.94e-4 0.781298,2.65e-4 1.5626,-2.9e-5 2.343898,2.65e-4 0.741381,-2.65e-4 1.482762,-1.14e-4 2.224143,-9e-5 -6.886016,5.29e-4 -2.840386,-7.94e-4 -1.249269,-8.8e-5 0.903941,-2.64e-4 1.807879,6.9e-5 2.711817,-5.29e-4 2.240846,1.17e-4 4.481695,0.0011 6.722542,1.8e-4 0.743055,-0.06155 1.592484,0.206613 2.219578,-0.236297 0.438973,-0.441838 0.56986,-0.816813 1.160574,-0.946377 0.328716,-0.07814 0.659702,-0.104354 0.995423,-0.08629 1.791089,0.02035 -5.453263,-0.02185 -2.518433,0.01011 1.849524,0.0055 3.699065,-0.0011 5.548598,7.94e-4 0.08995,1.03e-4 0.179909,2.09e-4 0.269862,2.65e-4 0,0 -3.940104,-0.623999 -3.940104,-0.623999 v 0 c -0.0885,1.27e-4 -0.177006,2.54e-4 -0.265512,2.65e-4 -2.164818,0.0027 5.037233,-7.94e-4 2.330715,-5.29e-4 -1.789375,0.0069 -3.579191,-0.04544 -5.368513,-0.0055 -0.344979,0.02786 -0.685358,0.09229 -1.011115,0.213595 -0.488159,0.232212 -0.680226,0.736145 -1.161511,0.98633 -0.716801,0.1486 -1.463794,0.02273 -2.191654,0.06477 -4.80287,-0.0021 5.057179,5.3e-4 1.13938,1.8e-4 -0.9022,-5.29e-4 -1.804403,-1.43e-4 -2.706603,-5.29e-4 -2.20731,0.0011 -4.41462,-0.0016 -6.62193,-8.7e-5 -0.741747,2.4e-5 -1.48349,1.8e-4 -2.225234,-8e-5 -0.779655,2.65e-4 -1.559308,2.2e-5 -2.338965,5.3e-4 6.838194,-5.3e-4 3.010287,-2.65e-4 1.44628,-5.1e-5 -1.191382,-7.93e-4 -2.382763,-0.0011 -3.574139,-0.0043 -2.550705,-0.006 -5.101665,-0.02402 -7.652164,0.01193 -1.08582,0.03394 -2.185221,0.07038 -3.228741,0.405199 -0.501926,0.179702 -0.996042,0.369842 -1.48918,0.572508 -0.149229,0.06133 -0.608816,0.168357 -0.448132,0.182901 1.41344,0.127937 9.009564,0.08976 -0.883818,0.09031 -1.0513192,2.64e-4 -2.1026393,2.35e-4 -3.1539588,0.0011 -0.8947864,5.29e-4 -1.7895667,0.0029 -2.6843474,0.0061 -2.2195829,0.007 5.0435348,0.004 2.6682901,0.0026 -0.4069675,-2.64e-4 -0.8139184,-0.0044 -1.220815,-0.01207 -0.5026498,-0.02722 -1.0239084,-0.08857 -1.5034855,-0.125153 0.18474,-0.531857 0.4245084,-0.549796 0.9675955,-0.507754 1.4711627,-1.6e-5 4.3290168,-7.94e-4 -2.251166,5.29e-4 -0.048229,1.1e-5 0.096458,-1.13e-4 0.1446874,-1.72e-4 0.6097228,-5.29e-4 1.219445,-5.29e-4 1.8291678,-5.29e-4 0.8118761,-2.64e-4 1.6237524,-7.1e-5 2.4356282,1.48e-4 2.1029808,-0.0011 4.2059617,7.94e-4 6.3089417,-7.93e-4 0.728205,-1.06e-4 1.456409,-0.0011 2.184603,-0.0055 1.924236,-0.01204 -5.906191,-0.02726 -1.907797,0.0096 0.740333,0.03459 1.460539,0.133889 2.163013,0.389972 0.689147,0.416208 1.241853,0.974979 2.077888,0.864981 0.98892,5.29e-4 1.97784,-0.0011 2.966759,-2.65e-4 2.316085,0.0011 4.63217,-0.0011 6.948254,1.83e-4 1.005782,-7.94e-4 2.011569,2.64e-4 3.01734,-0.0048 2.668577,-0.01201 -5.550921,-0.02756 -1.829287,0.0076 0.859023,0.02661 1.702703,0.232609 2.536529,0.426924 1.121378,0.413314 2.136839,1.004533 3.376361,0.828297 0.956191,5.29e-4 1.912382,2.64e-4 2.868573,7.94e-4 0.694222,5.29e-4 1.388443,-0.0011 2.082662,-1.22e-4 0.68978,-2.65e-4 1.379556,5e-6 2.069333,5.29e-4 0.296386,-1.35e-4 0.592767,1.38e-4 0.889151,2.65e-4 0.424915,-5.3e-4 0.849831,-7.94e-4 1.274746,-7.94e-4 0.821238,5.29e-4 1.642478,-0.0016 2.463716,-5.29e-4 0.197776,-6.1e-5 1.900295,0.140713 1.970378,0.0011 0.09593,-0.191164 0.09743,-0.41652 0.146138,-0.624782 -0.40767,2.65e-4 -0.815338,2.17e-4 -1.223008,1.32e-4 -3.389574,0.0045 4.537562,-0.0019 2.146642,2.65e-4 -0.583581,2.09e-4 -1.16716,-2.65e-4 -1.75074,-1.08e-4 -0.456968,-5.3e-4 -0.913935,5.29e-4 -1.370905,-5.3e-4 -1.960827,0.0028 -3.921662,2.65e-4 -5.882491,5.3e-4 -0.761058,2.64e-4 -1.522119,-4e-5 -2.283177,2.64e-4 -0.723278,-5.29e-4 -1.446557,-5.29e-4 -2.169835,1.46e-4 -2.620515,1.56e-4 6.273038,-8.5e-5 1.512591,-5.29e-4 -0.51081,-5.3e-4 -1.021622,-2.2e-5 -1.532432,-2.15e-4 -1.83628,0.0019 -3.672562,-0.0021 -5.508839,2.41e-4 -1.480399,0.0011 -4.63005,0.0016 1.859195,-5.29e-4 0.05505,-1.9e-5 -0.110104,9.5e-5 -0.165155,1.43e-4 -0.448464,2.64e-4 -0.896927,-2.65e-4 -1.345391,2.09e-4 -2.020601,0.0016 -4.041203,-5.29e-4 -6.061806,1.88e-4 -0.516921,-1.99e-4 -1.033849,5.29e-4 -1.550763,0.0033 -3.650662,0.0213 4.840045,0.0024 2.009495,0.0061 -0.785023,-0.0083 -1.568627,-0.04279 -2.343857,-0.18029 -0.970741,-0.272761 -1.873501,-0.654296 -2.783034,-1.087289 -0.789433,6.1e-5 -1.578865,-2.65e-4 -2.368297,2.64e-4 -1.990199,0.0016 -3.9804,-0.0011 -5.970598,-7.93e-4 -1.45242,5.29e-4 -4.2849015,0.0019 2.157628,-1.48e-4 -0.263007,-5.3e-4 -0.526013,6e-5 -0.789021,1.64e-4 -0.490309,1.4e-4 -0.980618,-5.3e-4 -1.470927,5.29e-4 -1.92359,-2.46e-4 -3.847176,-0.0021 -5.7707627,2.64e-4 -0.6119821,7.94e-4 -1.2239644,0.0033 -1.8359327,0.0075 -2.1825168,0.0123 5.4635784,0.02334 2.2651122,-0.0037 C 6.6911093,48.858952 6.41193,48.488391 6.1223004,48.260392 5.7185492,47.860128 5.7411036,47.548877 5.7671013,46.986508 c -0.00663,-1.188717 -0.00607,-2.377448 -0.00373,-3.566179 -1.646e-4,-0.975563 0.00433,-1.951127 0.00587,-2.926683 5.292e-4,-0.569198 0.00114,-1.138369 -6.879e-4,-1.707576 0.00325,-0.580284 -0.00103,-1.1606 0.00183,-1.740884 -8.202e-4,-0.468095 0.00367,-0.936149 -0.00188,-1.404231 -0.00281,-0.833953 -6.35e-4,-1.667904 -0.00407,-2.50186 0.00294,-0.93277 2.646e-4,-1.865543 0.00429,-2.798307 4.762e-4,-0.535261 0.00103,-1.070534 0.00432,-1.605781 -0.00204,-0.390278 -0.00441,-0.780605 0.00206,-1.170855 -5.821e-4,-0.536773 -8.202e-4,-1.073549 -5.556e-4,-1.610324 8.995e-4,-1.094253 -0.00899,-2.19065 -0.087697,-3.28229 C 5.5276339,21.503759 5.1728785,20.383231 4.8677298,19.24526 4.474479,17.85881 4.4715927,16.489518 4.4294088,15.057274 4.2953085,14.342573 3.8295783,13.734192 3.6039991,13.044272 3.1839831,11.989711 3.1929572,10.974348 3.2425087,9.8347447 3.2268276,7.3272821 3.2210959,4.8196939 3.2372789,2.3122212 Z" />
  </g>
</svg>
